<?xml version="1.0" encoding="UTF-8"?>
<svg id="Layer_1" xmlns="http://www.w3.org/2000/svg" viewBox="0 0 204 68">
  <defs>
    <style>
      .cls-1 {
        fill: none;
        stroke: #000;
      }

      .cls-2 {
        opacity: .97;
      }
    </style>
  </defs>
  <g class="cls-2">
    <path class="cls-1" d="M43.29,25.1c0,1.48-.25,2.83-.76,4.05-.51,1.22-1.2,2.26-2.07,3.12-.88.86-1.9,1.53-3.06,2.01-1.17.48-2.41.72-3.73.72H11.08v-6.81h22.58c2.27,0,3.41-1.03,3.41-3.1v-2.01c0-2.24-1.14-3.35-3.41-3.35H9.15v30.35H2.93V13.12h30.74c1.32,0,2.56.24,3.73.72,1.17.48,2.19,1.16,3.06,2.04.88.88,1.57,1.93,2.07,3.15.51,1.22.76,2.57.76,4.05v2.01Z"/>
    <path class="cls-1" d="M89.01,50.08h-6.22v-12.02c0-.96-.35-1.71-1.04-2.25-.69-.53-1.48-.8-2.37-.8h-22.58v-6.81h22.58c2.27,0,3.41-1.03,3.41-3.1v-2.01c0-2.24-1.14-3.35-3.41-3.35h-24.51v30.35h-6.22V13.12h30.74c1.32,0,2.56.24,3.73.72,1.17.48,2.19,1.16,3.06,2.04.88.88,1.57,1.93,2.07,3.15.51,1.22.76,2.57.76,4.05v2.01c0,2.37-.81,4.52-2.44,6.45,1.63,2.03,2.44,4.2,2.44,6.5v12.02Z"/>
    <path class="cls-1" d="M125.18,40.06c0,1.45-.26,2.79-.78,4.03-.52,1.24-1.22,2.3-2.1,3.17s-1.9,1.57-3.06,2.06c-1.17.5-2.4.75-3.69.75h-19.54v-6.71h19.54c2.27,0,3.41-1.1,3.41-3.3v-2.01c0-.96-.35-1.71-1.04-2.25-.69-.53-1.48-.8-2.37-.8h-19.54v-6.81h19.54c2.27,0,3.41-1.03,3.41-3.1v-2.01c0-2.24-1.14-3.35-3.41-3.35h-19.54v-6.61h19.54c1.29,0,2.52.24,3.69.72,1.17.48,2.19,1.16,3.06,2.04.88.88,1.57,1.93,2.1,3.15.52,1.22.78,2.57.78,4.05v2.01c0,2.37-.81,4.52-2.44,6.45.49.62.9,1.19,1.22,1.7s.58,1.07.76,1.65c.18.59.31,1.28.37,2.09.06.81.09,1.83.09,3.07Z"/>
    <path class="cls-1" d="M161.67,40.09c0,1.44-.26,2.78-.78,4.02s-1.22,2.29-2.1,3.17c-.88.88-1.9,1.56-3.06,2.06-1.17.5-2.4.75-3.69.75h-11.29c-1.35,0-2.61-.25-3.78-.75-1.17-.5-2.19-1.19-3.06-2.06s-1.57-1.93-2.07-3.15c-.51-1.22-.76-2.57-.76-4.05v-17.03c0-1.38.27-2.67.82-3.87.55-1.2,1.27-2.26,2.17-3.17.9-.91,1.92-1.62,3.07-2.14,1.15-.52,2.33-.77,3.56-.77h20.37v6.61h-20.37c-.43,0-.85.09-1.24.26-.4.17-.76.41-1.08.72s-.58.67-.78,1.08c-.2.41-.3.84-.3,1.29v17.03c0,2.2,1.14,3.3,3.42,3.3h11.32c2.28,0,3.42-1.1,3.42-3.3v-1.75c0-.45-.1-.88-.3-1.29-.2-.41-.46-.77-.78-1.08-.32-.31-.69-.55-1.11-.72-.42-.17-.82-.26-1.22-.26h-11.29v-6.61h11.29c1.2,0,2.37.26,3.52.77,1.15.51,2.18,1.22,3.09,2.11.91.89,1.64,1.95,2.19,3.17s.83,2.53.83,3.94v1.75Z"/>
    <path class="cls-1" d="M199.41,40.06c0,1.48-.25,2.83-.76,4.05-.51,1.22-1.2,2.27-2.08,3.15s-1.9,1.57-3.07,2.06c-1.17.5-2.42.75-3.74.75h-12.55c-1.35,0-2.62-.25-3.78-.75-1.17-.5-2.19-1.19-3.07-2.06s-1.57-1.93-2.08-3.15c-.51-1.22-.76-2.57-.76-4.05v-17.03c0-1.38.28-2.67.83-3.87.55-1.2,1.28-2.26,2.19-3.17.91-.91,1.94-1.62,3.09-2.14,1.15-.52,2.35-.77,3.58-.77h12.55c1.23,0,2.42.26,3.58.77,1.15.52,2.18,1.23,3.09,2.14.91.91,1.63,1.97,2.17,3.17.54,1.21.81,2.5.81,3.87v17.03ZM193.19,23.03c0-.45-.1-.88-.3-1.29s-.47-.77-.81-1.08c-.34-.31-.72-.55-1.13-.72-.42-.17-.82-.26-1.22-.26h-12.56c-.43,0-.85.09-1.25.26-.4.17-.76.41-1.09.72s-.58.67-.78,1.08-.3.84-.3,1.29v17.03c0,2.2,1.14,3.3,3.42,3.3h12.56c2.31,0,3.46-1.1,3.46-3.3v-17.03Z"/>
  </g>
</svg>