<?xml version="1.0" encoding="UTF-8"?>
<svg xmlns="http://www.w3.org/2000/svg" xmlns:xlink="http://www.w3.org/1999/xlink" version="1.1" viewBox="0 0 204 68">
  <defs>
    <style>
      .cls-1, .cls-2 {
        fill: none;
      }

      .cls-3 {
        mask: url(#mask);
      }

      .cls-4, .cls-5 {
        fill-rule: evenodd;
      }

      .cls-4, .cls-6 {
        fill: #fff;
      }

      .cls-6 {
        fill-opacity: 0;
      }

      .cls-6, .cls-2 {
        stroke: #000;
      }

      .cls-7 {
        display: none;
      }
    </style>
    <mask id="mask" x="1" y="1" width="201.7" height="66.1" maskUnits="userSpaceOnUse">
      <g id="b">
        <path id="a-2" data-name="a" class="cls-4" d="M23,54c.4,0,1.1,0,2.2-.1h.2c.8,0,1.7-.2,2.6-.4,2-.4,4-1.1,6.3-2.3,2.3-1.2,4.2-2.9,5.7-5.1,1.5-2.3,2.2-5.1,2.2-8.4s-.5-5.3-1.5-7.1c-1-1.7-2.5-3.1-4.5-4.1-2-1-4.9-2-8.8-2.9l-4.9-1.3-7.1-1.7c-2.7-.8-4-2.6-4-5.2s.9-3.3,2.7-4.3,3.8-1.5,6-1.5c6.5,0,10,2.5,10.5,7.5h10.1c0-.9,0-1.8-.3-2.7-.1-.7-.4-1.6-.9-2.9-.7-1.9-1.8-3.7-3.2-5.3-1.4-1.5-3.4-2.8-6.2-3.8-2.6-1-5.7-1.5-9.4-1.5s-7.3.6-10.2,1.8c-2.8,1.2-5,3-6.5,5.4-1.5,2.4-2.3,5.1-2.3,8s.7,6,2.2,8.1c1.3,2,3.2,3.5,5.6,4.5,2.5,1.1,5.4,2,8.6,2.6l4.8,1.1,5.3,1.5c1,.3,1.9.9,2.6,1.7.8.8,1.1,1.9,1.1,3.5,0,4.1-3.7,6.2-11,6.2s-3.3-.3-4.9-.9c-1.5-.6-2.8-1.5-3.6-2.7-1-1.2-1.5-2.7-1.5-4.6H1c0,5.5,1.9,9.7,5.7,12.6,3.7,2.8,9.1,4.3,16.4,4.3ZM59.7,52.6v-11.8l4.1-4.3,8.9,16h11.8l-13.6-22.8,13.2-14.5h-12.1l-12.3,14.2V2.3h-9.9v50.3h9.9ZM97.8,53.6c1.7,0,3.3-.2,4.6-.7,1.3-.5,2.6-1.2,3.8-1.9,1.1-.8,2.2-1.7,3.2-2.8,0,.7.1,1.5.4,2.6,0,.1.1.4.3.9.1.4.2.7.3.9h10.5v-1.5c-.9-.3-1.5-.9-1.7-1.9s-.4-2.3-.4-3.9v-20.2c0-1.4-.3-2.9-.9-4.5-.6-1.6-2.1-3.1-4.4-4.4-2.3-1.3-5.7-1.9-10.2-1.9s-3.2.1-4.7.4c-1.5.3-2.8.6-3.9,1.1-2.2.9-3.9,2.3-5.2,4.3-1.2,1.9-2,4.4-2.3,7.4h9.5c.2-2.1.9-3.5,1.9-4.2,1.1-.7,2.7-1.1,4.6-1.1,3.9,0,5.9,1.5,5.9,4.5s-1.1,2.4-3.2,2.7l-9,1.3c-3.1.5-5.7,1.7-7.8,3.6-2.1,1.9-3.1,4.7-3.1,8.4s.6,4.6,1.9,6.3c1.2,1.7,2.7,2.9,4.4,3.5,1.8.7,3.6,1,5.4,1ZM100.6,46.6c-1.4,0-2.5-.4-3.4-1.1-.9-.7-1.3-1.7-1.3-3.1s.5-3,1.4-3.8c.9-.8,2.1-1.4,3.6-1.7l4.7-1c1.5-.3,2.7-.8,3.6-1.5v4.8c0,1.6-.5,3-1.4,4.1-.9,1.1-2,1.9-3.3,2.4-.8.3-1.5.5-2,.6-.5.1-1,.2-1.8.2ZM137.2,67.1v-19.2c.5.6.8,1.1,1.3,1.7.1.2.5.6,1,1.2.8.8,1.9,1.5,3.2,2,1.3.6,3,.9,5,.9,3.6,0,6.6-1,9-2.9,2.4-1.9,4.1-4.4,5.1-7.5.5-1.6.9-3.2,1.2-4.8.3-1.6.4-3.2.4-4.8,0-3.2-.4-6-1.3-8.4-.8-2.5-2-4.5-3.3-6.1-1.4-1.6-3.1-2.8-5-3.6-2-.8-4-1.2-5.9-1.2s-2.3.3-3.3.8c-.9.6-1.9,1.4-2.9,2.5-1,1.1-1.9,1.9-2.6,2.5-.6.5-1.4.7-2.2.7h-.3v-5.5h-9.2v51.8h9.8ZM145.2,45.5c-2.8,0-4.9-1-6.4-3.1-1.5-2.1-2.3-4.6-2.3-7.6,0-8,2.8-12,8.3-12s5.1,1.1,6.4,3.2,2,4.9,2,8.2c0,2.8-.6,5.4-1.9,7.7-1.3,2.3-3.4,3.5-6.3,3.5ZM185.9,53.6c2.5,0,4.9-.5,7.2-1.4,2.2-.9,4.1-2.3,5.7-4.1,1.5-1.7,2.7-3.8,3.5-6.4h-10.1c-.3,1.1-1.1,2.1-2.3,2.8-1.2.8-2.5,1.2-4,1.2-2.8,0-5-.8-6.5-2.4-1.6-1.5-2.4-3.8-2.4-6.8h25.7v-1.7c0-3.7-.6-7.1-1.7-10.2s-3-5.6-5.5-7.5c-2.6-1.9-6-2.8-10.3-2.8s-7.5.9-10.2,2.7c-2.7,1.7-4.7,4.1-5.9,7-1.2,3-1.8,6-1.8,9.3,0,13.6,6.2,20.4,18.6,20.4ZM192.6,30.4h-15.2c.7-5.3,3.2-8,7.6-8,2.1,0,3.8.7,5.2,2.1,1.4,1.5,2.2,3.5,2.4,5.9Z"/>
      </g>
    </mask>
  </defs>
  <!-- Generator: Adobe Illustrator 28.6.0, SVG Export Plug-In . SVG Version: 1.2.0 Build 709)  -->
  <g>
    <g id="Layer_1">
      <g class="cls-7">
        <path id="a" class="cls-6" d="M23,54c.4,0,1.1,0,2.2-.1h.2c.8,0,1.7-.2,2.6-.4,2-.4,4-1.1,6.3-2.3,2.3-1.2,4.2-2.9,5.7-5.1,1.5-2.3,2.2-5.1,2.2-8.4s-.5-5.3-1.5-7.1c-1-1.7-2.5-3.1-4.5-4.1-2-1-4.9-2-8.8-2.9l-4.9-1.3-7.1-1.7c-2.7-.8-4-2.6-4-5.2s.9-3.3,2.7-4.3,3.8-1.5,6-1.5c6.5,0,10,2.5,10.5,7.5h10.1c0-.9,0-1.8-.3-2.7-.1-.7-.4-1.6-.9-2.9-.7-1.9-1.8-3.7-3.2-5.3-1.4-1.5-3.4-2.8-6.2-3.8-2.6-1-5.7-1.5-9.4-1.5s-7.3.6-10.2,1.8c-2.8,1.2-5,3-6.5,5.4-1.5,2.4-2.3,5.1-2.3,8s.7,6,2.2,8.1c1.3,2,3.2,3.5,5.6,4.5,2.5,1.1,5.4,2,8.6,2.6l4.8,1.1,5.3,1.5c1,.3,1.9.9,2.6,1.7.8.8,1.1,1.9,1.1,3.5,0,4.1-3.7,6.2-11,6.2s-3.3-.3-4.9-.9c-1.5-.6-2.8-1.5-3.6-2.7-1-1.2-1.5-2.7-1.5-4.6H1c0,5.5,1.9,9.7,5.7,12.6,3.7,2.8,9.1,4.3,16.4,4.3ZM59.7,52.6v-11.8l4.1-4.3,8.9,16h11.8l-13.6-22.8,13.2-14.5h-12.1l-12.3,14.2V2.3h-9.9v50.3h9.9ZM97.8,53.6c1.7,0,3.3-.2,4.6-.7,1.3-.5,2.6-1.2,3.8-1.9,1.1-.8,2.2-1.7,3.2-2.8,0,.7.1,1.5.4,2.6,0,.1.1.4.3.9.1.4.2.7.3.9h10.5v-1.5c-.9-.3-1.5-.9-1.7-1.9s-.4-2.3-.4-3.9v-20.2c0-1.4-.3-2.9-.9-4.5-.6-1.6-2.1-3.1-4.4-4.4-2.3-1.3-5.7-1.9-10.2-1.9s-3.2.1-4.7.4c-1.5.3-2.8.6-3.9,1.1-2.2.9-3.9,2.3-5.2,4.3-1.2,1.9-2,4.4-2.3,7.4h9.5c.2-2.1.9-3.5,1.9-4.2,1.1-.7,2.7-1.1,4.6-1.1,3.9,0,5.9,1.5,5.9,4.5s-1.1,2.4-3.2,2.7l-9,1.3c-3.1.5-5.7,1.7-7.8,3.6-2.1,1.9-3.1,4.7-3.1,8.4s.6,4.6,1.9,6.3c1.2,1.7,2.7,2.9,4.4,3.5,1.8.7,3.6,1,5.4,1ZM100.6,46.6c-1.4,0-2.5-.4-3.4-1.1-.9-.7-1.3-1.7-1.3-3.1s.5-3,1.4-3.8c.9-.8,2.1-1.4,3.6-1.7l4.7-1c1.5-.3,2.7-.8,3.6-1.5v4.8c0,1.6-.5,3-1.4,4.1-.9,1.1-2,1.9-3.3,2.4-.8.3-1.5.5-2,.6-.5.1-1,.2-1.8.2ZM137.2,67.1v-19.2c.5.6.8,1.1,1.3,1.7.1.2.5.6,1,1.2.8.8,1.9,1.5,3.2,2,1.3.6,3,.9,5,.9,3.6,0,6.6-1,9-2.9,2.4-1.9,4.1-4.4,5.1-7.5.5-1.6.9-3.2,1.2-4.8.3-1.6.4-3.2.4-4.8,0-3.2-.4-6-1.3-8.4-.8-2.5-2-4.5-3.3-6.1-1.4-1.6-3.1-2.8-5-3.6-2-.8-4-1.2-5.9-1.2s-2.3.3-3.3.8c-.9.6-1.9,1.4-2.9,2.5-1,1.1-1.9,1.9-2.6,2.5-.6.5-1.4.7-2.2.7h-.3v-5.5h-9.2v51.8h9.8ZM145.2,45.5c-2.8,0-4.9-1-6.4-3.1-1.5-2.1-2.3-4.6-2.3-7.6,0-8,2.8-12,8.3-12s5.1,1.1,6.4,3.2,2,4.9,2,8.2c0,2.8-.6,5.4-1.9,7.7-1.3,2.3-3.4,3.5-6.3,3.5ZM185.9,53.6c2.5,0,4.9-.5,7.2-1.4,2.2-.9,4.1-2.3,5.7-4.1,1.5-1.7,2.7-3.8,3.5-6.4h-10.1c-.3,1.1-1.1,2.1-2.3,2.8-1.2.8-2.5,1.2-4,1.2-2.8,0-5-.8-6.5-2.4-1.6-1.5-2.4-3.8-2.4-6.8h25.7v-1.7c0-3.7-.6-7.1-1.7-10.2s-3-5.6-5.5-7.5c-2.6-1.9-6-2.8-10.3-2.8s-7.5.9-10.2,2.7c-2.7,1.7-4.7,4.1-5.9,7-1.2,3-1.8,6-1.8,9.3,0,13.6,6.2,20.4,18.6,20.4ZM192.6,30.4h-15.2c.7-5.3,3.2-8,7.6-8,2.1,0,3.8.7,5.2,2.1,1.4,1.5,2.2,3.5,2.4,5.9Z"/>
        <g class="cls-3">
          <path id="vlt-site-preloader-path" class="cls-5" d="M1,1h0v66h0V1Z"/>
        </g>
      </g>
      <g>
        <path class="cls-2" d="M3,7.1c3.3-.6,7.7-1,13.3-1s11.9,1.6,15.1,4.5c2.9,2.6,4.7,6.5,4.7,11.2s-1.4,8.7-4.1,11.5c-3.7,3.9-9.6,5.9-16.4,5.9s-4,0-5.6-.5v21.5H3V7.1ZM9.9,33.1c1.5.4,3.4.6,5.7.6,8.4,0,13.5-4.1,13.5-11.5s-5-10.5-12.7-10.5-5.3.2-6.5.6v20.9Z"/>
        <path class="cls-2" d="M45.4,7.2c3.5-.7,8.5-1.1,13.3-1.1,7.4,0,12.2,1.4,15.5,4.4,2.7,2.4,4.2,6.1,4.2,10.2,0,7.1-4.5,11.8-10.1,13.7v.2c4.1,1.4,6.6,5.3,7.9,10.8,1.8,7.5,3,12.7,4.1,14.8h-7.2c-.9-1.5-2.1-6.1-3.6-12.8-1.6-7.4-4.5-10.2-10.8-10.4h-6.5v23.3h-6.9V7.2ZM52.3,31.7h7.1c7.4,0,12.1-4.1,12.1-10.2s-5-10-12.4-10c-3.3,0-5.7.3-6.9.6v19.6Z"/>
        <path class="cls-2" d="M87.5,52.2c2,1.3,6.6,3.3,11.5,3.3,9,0,11.8-5.7,11.7-10,0-7.3-6.6-10.4-13.4-10.4h-3.9v-5.3h3.9c5.1,0,11.6-2.6,11.6-8.8s-2.6-7.8-9.1-7.8-8.1,1.8-10.4,3.4l-1.8-5.1c2.7-2,8-4,13.6-4,10.2,0,14.8,6.1,14.8,12.4s-3.2,9.9-9.6,12.2v.2c6.4,1.3,11.6,6.1,11.6,13.3s-6.5,15.5-18.9,15.5-10.9-1.8-13.5-3.5l1.9-5.4Z"/>
        <path class="cls-2" d="M156.3,13.4c-1.4,0-3.3,0-5.3.3-11,1.8-16.8,9.9-18,18.4h.2c2.5-3.3,6.8-6,12.5-6,9.2,0,15.6,6.6,15.6,16.7s-6.5,18.3-17.2,18.3-18.3-8.6-18.3-22.1,3.7-18.3,8.8-23.4c4.3-4.2,10-6.9,16.6-7.7,2.1-.3,3.8-.4,5.1-.4v5.7ZM154.3,43.3c0-7.4-4.2-11.9-10.7-11.9s-8.1,2.6-10,6.4c-.5.8-.8,1.8-.8,3.1.2,8.5,4.1,14.8,11.4,14.8s10.1-5,10.1-12.4Z"/>
        <path class="cls-2" d="M202.1,33.8c0,17.6-6.5,27.3-18,27.3s-17-9.5-17.1-26.6c0-17.4,7.5-26.9,18-26.9s17.1,9.7,17.1,26.2ZM173.9,34.6c0,13.5,4.1,21.1,10.5,21.1s10.6-8.4,10.6-21.6-3.3-21.1-10.5-21.1-10.6,7.5-10.6,21.6Z"/>
      </g>
      <rect class="cls-1" x="24.6" y="6.2" width="165" height="13.6"/>
    </g>
  </g>
</svg>