<?xml version="1.0" encoding="UTF-8"?>
<svg id="Layer_1" xmlns="http://www.w3.org/2000/svg" viewBox="0 0 2049 675">
  <defs>
    <style>
      .cls-1 {
        fill: #171946;
      }

      .cls-2 {
        fill: #727272;
      }
    </style>
  </defs>
  <g>
    <path class="cls-2" d="M742.12,323.19c0,4.72-.91,9.03-2.72,12.92-1.81,3.9-4.28,7.22-7.41,9.96-3.13,2.75-6.78,4.89-10.95,6.42-4.17,1.54-8.62,2.31-13.34,2.31h-80.67v-21.73h80.67c8.12,0,12.18-3.29,12.18-9.88v-6.42c0-7.13-4.06-10.7-12.18-10.7h-87.59v96.81h-22.23v-117.88h109.82c4.72,0,9.16.77,13.34,2.31,4.17,1.54,7.82,3.7,10.95,6.5,3.13,2.8,5.6,6.15,7.41,10.04,1.81,3.9,2.72,8.21,2.72,12.92v6.42Z"/>
    <path class="cls-2" d="M905.44,402.88h-22.23v-38.36c0-3.07-1.23-5.46-3.7-7.16-2.47-1.7-5.3-2.55-8.48-2.55h-80.67v-21.73h80.67c8.12,0,12.18-3.29,12.18-9.88v-6.42c0-7.13-4.06-10.7-12.18-10.7h-87.59v96.81h-22.23v-117.88h109.82c4.72,0,9.16.77,13.34,2.31,4.17,1.54,7.82,3.7,10.95,6.5,3.13,2.8,5.6,6.15,7.41,10.04,1.81,3.9,2.72,8.21,2.72,12.92v6.42c0,7.57-2.91,14.43-8.73,20.58,5.82,6.48,8.73,13.39,8.73,20.75v38.36Z"/>
  </g>
  <g>
    <g>
      <path class="cls-1" d="M1335.54,439.61c-.53,0-1.06-.05-1.59-.15-.52-.11-1.03-.27-1.53-.47-.49-.2-.97-.46-1.4-.75-.45-.3-.86-.63-1.23-1.01-.38-.38-.72-.79-1.02-1.24-.3-.44-.54-.91-.75-1.4-.2-.49-.36-1-.46-1.52-.11-.53-.16-1.07-.16-1.6s.05-1.06.16-1.59c.1-.52.25-1.03.46-1.53.21-.49.46-.96.75-1.4.3-.45.64-.87,1.02-1.23.37-.38.78-.72,1.23-1.02.44-.3.92-.54,1.4-.74.5-.2,1.01-.37,1.53-.47,1.05-.21,2.13-.21,3.18,0,.52.1,1.03.26,1.52.47.5.2.97.45,1.4.74.45.3.87.64,1.24,1.02.38.37.71.78,1.01,1.23.3.45.55.92.75,1.4.2.5.36,1.01.47,1.53.1.53.15,1.06.15,1.59,0,2.15-.87,4.24-2.38,5.76-.38.38-.79.71-1.24,1.01-.44.3-.92.55-1.4.75-.49.2-1.01.36-1.52.47-.53.1-1.07.15-1.6.15Z"/>
      <path class="cls-1" d="M1252.31,468.76c-4.49-.12-8.04-3.86-7.93-8.35h0c.12-4.5,3.86-8.04,8.35-7.93h0c4.49.11,8.04,3.86,7.93,8.34h0c-.11,4.43-3.73,7.94-8.14,7.94h-.21ZM1266.9,460.44c-.69-4.45,2.35-8.61,6.79-9.3h0c4.45-.69,8.61,2.35,9.3,6.79h0c.69,4.45-2.35,8.61-6.8,9.3h0c-.42.07-.84.1-1.26.1h0c-3.94,0-7.41-2.87-8.03-6.89ZM1228.53,465.98h0c-4.39-.93-7.21-5.24-6.29-9.64h0c.93-4.4,5.24-7.21,9.65-6.29h0c4.39.93,7.21,5.24,6.29,9.65h0c-.8,3.83-4.19,6.46-7.96,6.46h0c-.56,0-1.12-.06-1.69-.17ZM1289.05,456.41c-1.5-4.24.74-8.88,4.97-10.38h0c4.23-1.49,8.88.74,10.37,4.98h0c1.5,4.24-.74,8.89-4.97,10.38h0c-.9.32-1.8.47-2.7.47h0c-3.37,0-6.51-2.11-7.68-5.45ZM1205.64,458.93c-4.15-1.72-6.13-6.47-4.43-10.63h0c1.71-4.15,6.47-6.14,10.62-4.43h0c4.16,1.71,6.15,6.47,4.44,10.62h0c-1.29,3.14-4.33,5.05-7.53,5.05h0c-1.04,0-2.09-.19-3.1-.61ZM1310.09,448.41c-2.24-3.9-.89-8.87,3.01-11.11h0c3.91-2.23,8.87-.88,11.11,3.02h0c2.24,3.9.89,8.87-3.01,11.11h0c-1.28.73-2.67,1.08-4.04,1.08h0c-2.83,0-5.56-1.48-7.07-4.1Z"/>
      <path class="cls-1" d="M1188.81,449.11c-.53,0-1.06-.05-1.59-.15-.52-.1-1.03-.26-1.52-.47-.5-.2-.97-.46-1.41-.74-.44-.31-.85-.64-1.23-1.02-1.52-1.52-2.39-3.61-2.39-5.76,0-.53.06-1.06.16-1.59.1-.52.26-1.03.47-1.53.2-.49.45-.96.74-1.4.3-.45.64-.85,1.02-1.23,1.88-1.89,4.7-2.77,7.35-2.23.52.1,1.03.26,1.53.47.49.2.96.45,1.4.74.44.3.85.64,1.23,1.02.38.38.72.78,1.02,1.23.29.45.54.92.74,1.4.2.5.36,1.01.47,1.53.1.53.15,1.06.15,1.59s-.05,1.07-.15,1.6c-.11.52-.26,1.03-.47,1.52-.2.5-.46.97-.74,1.41-.3.44-.64.85-1.02,1.23-1.52,1.52-3.61,2.38-5.76,2.38Z"/>
    </g>
    <g>
      <path class="cls-1" d="M1184.94,244.88c-.53,0-1.07-.05-1.6-.15-.51-.11-1.03-.26-1.52-.47-.49-.2-.97-.46-1.4-.75-.45-.3-.86-.63-1.24-1.01s-.71-.79-1.01-1.24c-.3-.44-.55-.91-.75-1.4-.2-.49-.36-1-.46-1.52-.11-.53-.16-1.07-.16-1.6s.05-1.07.16-1.59c.1-.52.25-1.03.46-1.53.2-.49.46-.96.75-1.4s.63-.85,1.01-1.23.79-.72,1.24-1.02c.44-.3.92-.54,1.4-.74.49-.2,1.01-.37,1.52-.47,1.06-.21,2.14-.21,3.18,0,.52.1,1.04.26,1.53.47.49.2.97.45,1.4.74.45.3.87.64,1.23,1.02,1.52,1.52,2.39,3.61,2.39,5.75,0,.53-.06,1.07-.16,1.6-.1.52-.26,1.03-.47,1.52-.2.5-.45.97-.74,1.4-.3.45-.64.86-1.02,1.24-.37.38-.78.71-1.23,1.01-.44.29-.92.55-1.4.75-.49.2-1.01.36-1.53.47-.52.1-1.06.15-1.59.15Z"/>
      <path class="cls-1" d="M1373.39,377.08c-4.35-1.14-6.97-5.57-5.84-9.93h0c1.13-4.35,5.57-6.96,9.92-5.83h0c4.35,1.13,6.97,5.57,5.84,9.92h0c-.96,3.66-4.25,6.09-7.87,6.09h0c-.68,0-1.36-.08-2.05-.25ZM1378.57,354.49c-4.49-.31-7.87-4.18-7.58-8.66h0c.3-4.49,4.17-7.88,8.66-7.59h0c4.49.3,7.88,4.17,7.58,8.66h0c-.29,4.3-3.87,7.6-8.11,7.6h0c-.18,0-.37,0-.55,0ZM1370.42,324.21c-.53-4.47,2.66-8.52,7.12-9.04h0c4.46-.54,8.51,2.64,9.05,7.11h0c.53,4.47-2.66,8.52-7.12,9.05h0c-.33.04-.65.06-.97.06h0c-4.07,0-7.58-3.03-8.08-7.17ZM1365.86,303.11h0c-1.36-4.29,1.01-8.86,5.29-10.22h0c4.28-1.36,8.86,1.02,10.22,5.3h0c1.35,4.28-1.02,8.86-5.3,10.21h0c-.81.26-1.65.39-2.46.39h0c-3.45,0-6.65-2.22-7.75-5.68ZM1357.42,283.23c-2.14-3.95-.66-8.89,3.29-11.03h0c3.96-2.14,8.9-.66,11.04,3.29h0c2.14,3.96.66,8.89-3.29,11.04h0c-1.23.66-2.56.98-3.87.98h0c-2.9,0-5.7-1.55-7.17-4.27ZM1345.41,265.27c-2.84-3.49-2.31-8.62,1.18-11.46h0c3.49-2.83,8.62-2.3,11.45,1.18h0c2.84,3.49,2.31,8.62-1.18,11.46h0c-1.51,1.22-3.32,1.82-5.13,1.82h0c-2.36,0-4.71-1.03-6.32-3ZM1330.27,249.84c-3.43-2.9-3.87-8.04-.96-11.47h0c2.9-3.44,8.04-3.87,11.47-.97h0c3.44,2.91,3.87,8.04.97,11.48h0c-1.62,1.9-3.92,2.88-6.23,2.88h0c-1.85,0-3.72-.63-5.25-1.92ZM1312.54,237.48c-3.91-2.21-5.29-7.17-3.07-11.09h0c2.22-3.92,7.18-5.29,11.09-3.07h0c3.92,2.21,5.29,7.17,3.08,11.09h0c-1.51,2.65-4.26,4.13-7.09,4.13h0c-1.36,0-2.74-.35-4.01-1.06ZM1197.62,228.65c-1.85-4.1-.03-8.92,4.08-10.77h0c4.09-1.84,8.91-.02,10.75,4.08h0c1.85,4.1.02,8.92-4.07,10.76h0c-1.09.49-2.23.72-3.34.72h0c-3.1,0-6.07-1.78-7.43-4.79ZM1292.83,228.66c-4.26-1.44-6.54-6.06-5.1-10.32h0c1.43-4.26,6.05-6.54,10.32-5.11h0c4.25,1.44,6.54,6.06,5.1,10.33h0c-1.15,3.39-4.31,5.52-7.71,5.52h0c-.87,0-1.74-.13-2.61-.43ZM1219.01,219.72c-1.04-4.36,1.66-8.76,6.03-9.81h0c4.36-1.05,8.76,1.66,9.81,6.02h0c1.04,4.37-1.66,8.77-6.02,9.82h0c-.64.14-1.27.21-1.9.21h0c-3.68,0-7.02-2.51-7.91-6.25ZM1271.81,223.7c-4.45-.62-7.56-4.73-6.94-9.19h0c.62-4.45,4.73-7.56,9.19-6.94h0c4.45.62,7.56,4.73,6.94,9.19h0c-.57,4.07-4.05,7.01-8.05,7.01h0c-.38,0-.75-.02-1.14-.07ZM1241.71,214.98c-.21-4.5,3.26-8.31,7.74-8.52h0c4.49-.21,8.3,3.26,8.52,7.74h0c.21,4.49-3.26,8.3-7.74,8.52h0c-.13,0-.25,0-.39,0h0c-4.31,0-7.92-3.4-8.12-7.75Z"/>
      <path class="cls-1" d="M1367.49,399.17c-.53,0-1.06-.05-1.59-.16-.52-.1-1.03-.25-1.53-.46-.49-.2-.96-.46-1.4-.75-.45-.3-.87-.63-1.23-1.01-.38-.38-.72-.79-1.02-1.24-.3-.44-.54-.92-.74-1.4-.2-.49-.37-1.01-.47-1.53-.1-.52-.16-1.06-.16-1.59s.06-1.07.16-1.59.26-1.04.47-1.53c.2-.49.45-.97.74-1.4.3-.45.64-.87,1.02-1.24,1.51-1.52,3.61-2.38,5.75-2.38s4.24.87,5.76,2.38c.38.38.71.79,1.01,1.24.3.44.55.92.75,1.4.2.49.36,1.01.47,1.53.1.52.15,1.06.15,1.59s-.05,1.07-.15,1.59c-.11.52-.27,1.04-.47,1.53-.2.49-.46.97-.75,1.4-.3.45-.63.86-1.01,1.24-1.52,1.52-3.61,2.38-5.76,2.38Z"/>
    </g>
    <g>
      <path class="cls-1" d="M1138.64,257.03c-.4,0-.79-.04-1.19-.12-.39-.08-.77-.19-1.14-.35-.38-.15-.73-.35-1.06-.57-.34-.21-.65-.47-.93-.75-.29-.28-.54-.59-.76-.93-.21-.34-.41-.69-.56-1.06-.15-.37-.27-.75-.35-1.14-.08-.4-.12-.79-.12-1.19s.04-.8.12-1.2c.08-.39.19-.77.35-1.14.15-.37.35-.72.56-1.05.22-.34.48-.65.76-.94,1.13-1.13,2.71-1.78,4.31-1.78s3.18.65,4.31,1.78c.29.29.54.6.76.94.22.33.41.68.56,1.05.15.37.27.75.35,1.14.08.4.12.8.12,1.2s-.04.79-.12,1.19c-.07.39-.19.77-.35,1.14-.15.37-.34.72-.56,1.06-.22.34-.48.64-.76.93-.27.28-.59.54-.93.75-.33.22-.68.42-1.05.57-.38.15-.75.26-1.15.35-.39.08-.79.12-1.19.12Z"/>
      <path class="cls-1" d="M1252.88,488.09h0c-3.37-.07-6.04-2.86-5.97-6.24h0c.07-3.37,2.87-6.04,6.24-5.96h0c3.38.07,6.04,2.86,5.97,6.24h0c-.07,3.33-2.8,5.97-6.1,5.97h0s-.09,0-.13,0ZM1269.88,481.53c-.45-3.35,1.89-6.42,5.23-6.87h0c3.35-.45,6.42,1.89,6.87,5.23h0c.46,3.35-1.89,6.42-5.23,6.87h0c-.28.04-.55.06-.82.06h0c-3.01,0-5.64-2.23-6.04-5.29ZM1229.07,485.7h0c-3.32-.61-5.51-3.78-4.91-7.1h0c.6-3.32,3.77-5.51,7.09-4.91h0c3.33.6,5.53,3.77,4.93,7.09h0c-.54,2.95-3.1,5.02-6,5.02h0c-.37,0-.72-.03-1.1-.09ZM1292.52,477.61c-.98-3.24.84-6.63,4.08-7.61h0c3.23-.97,6.63.85,7.61,4.08h0c.97,3.24-.85,6.63-4.09,7.61h0c-.58.18-1.18.26-1.76.26h0c-2.62,0-5.05-1.71-5.84-4.34ZM1205.95,479.58c-3.19-1.12-4.85-4.61-3.73-7.78h0c1.12-3.18,4.6-4.85,7.78-3.73h0c3.18,1.12,4.85,4.6,3.73,7.78h0c-.89,2.51-3.24,4.08-5.76,4.08h0c-.67,0-1.35-.11-2.02-.35ZM1314.25,470.16c-1.47-3.04-.21-6.69,2.82-8.16h0c3.03-1.47,6.68-.21,8.16,2.83h0c1.48,3.03.2,6.68-2.83,8.15h0c-.87.42-1.77.62-2.67.62h0c-2.27,0-4.45-1.27-5.49-3.44ZM1184.07,469.86c-2.96-1.61-4.06-5.31-2.45-8.27h0c1.61-2.97,5.31-4.06,8.28-2.45h0c2.97,1.61,4.07,5.31,2.46,8.27h0c-1.11,2.04-3.21,3.19-5.37,3.19h0c-.99,0-1.98-.23-2.91-.74ZM1334.52,459.37c-1.93-2.76-1.25-6.57,1.51-8.49h0c2.77-1.93,6.57-1.26,8.51,1.51h0c1.92,2.76,1.25,6.56-1.51,8.5h0c-1.07.74-2.29,1.11-3.5,1.11h0c-1.92,0-3.82-.92-5.01-2.62ZM1164.02,456.84h0c-2.68-2.06-3.18-5.89-1.13-8.57h0c2.05-2.68,5.89-3.17,8.56-1.12h0c2.68,2.06,3.17,5.88,1.12,8.56h0c-1.2,1.57-3.01,2.39-4.84,2.39h0c-1.3,0-2.62-.42-3.71-1.26ZM1352.85,445.52c-2.34-2.42-2.27-6.29.15-8.63h0c2.43-2.34,6.3-2.27,8.64.16h0c2.34,2.42,2.27,6.29-.16,8.63h0c-1.18,1.14-2.71,1.71-4.23,1.71h0c-1.6,0-3.2-.63-4.4-1.87ZM1146.25,440.82c-2.32-2.45-2.21-6.32.23-8.64h0c2.44-2.32,6.31-2.21,8.63.23h0c2.32,2.44,2.22,6.31-.22,8.63h0c-1.18,1.12-2.7,1.68-4.2,1.68h0c-1.62,0-3.23-.64-4.44-1.9ZM1368.79,428.98c-2.7-2.02-3.23-5.86-1.2-8.55h0c2.03-2.69,5.86-3.23,8.56-1.19h0c2.69,2.02,3.23,5.85,1.19,8.55h0c-1.2,1.59-3.02,2.42-4.87,2.42h0c-1.28,0-2.57-.4-3.67-1.23ZM1381.95,410.15c-2.97-1.59-4.11-5.28-2.52-8.26h0c1.59-2.97,5.28-4.1,8.25-2.52h0c2.98,1.59,4.11,5.28,2.53,8.26h0c-1.09,2.06-3.21,3.24-5.39,3.24h0c-.97,0-1.94-.23-2.86-.71ZM1391.98,389.46c-3.19-1.09-4.89-4.57-3.8-7.75h0c1.09-3.19,4.56-4.89,7.75-3.79h0c3.18,1.09,4.88,4.56,3.8,7.75h0c-.88,2.53-3.24,4.13-5.78,4.13h0c-.65,0-1.32-.11-1.97-.34ZM1398.6,367.47c-3.32-.57-5.55-3.73-4.97-7.05h0c.57-3.33,3.73-5.55,7.05-4.97h0c3.32.57,5.55,3.72,4.97,7.05h0c-.51,2.97-3.09,5.07-6,5.07h0c-.35,0-.69-.03-1.05-.09ZM1401.66,344.71c-3.37-.05-6.06-2.82-6.01-6.2h0c.04-3.37,2.82-6.06,6.18-6.01h0c3.37.04,6.06,2.82,6.01,6.18h0c-.04,3.35-2.77,6.02-6.09,6.02h-.09ZM1394.24,316.57c-.48-3.34,1.84-6.44,5.18-6.92h0c3.34-.48,6.43,1.84,6.91,5.18h0c.48,3.34-1.84,6.43-5.18,6.91h0c-.29.04-.58.07-.87.07h0c-2.98,0-5.6-2.2-6.03-5.24ZM1389.41,295.12c-1-3.23.79-6.64,4.02-7.64h0c3.22-1.01,6.64.79,7.64,4.02h0c1,3.22-.79,6.63-4.02,7.64h0c-.6.18-1.21.27-1.81.27h0c-2.61,0-5.02-1.68-5.83-4.29ZM1381.24,274.71c-1.5-3.02-.26-6.68,2.76-8.18h0c3.02-1.5,6.68-.26,8.18,2.76h0c1.5,3.02.27,6.68-2.76,8.18h0c-.87.44-1.79.64-2.71.64h0c-2.25,0-4.41-1.25-5.47-3.4ZM1369.94,255.85c-1.95-2.75-1.3-6.55,1.44-8.51h0c2.74-1.96,6.55-1.31,8.51,1.43h0c1.95,2.75,1.31,6.55-1.43,8.51h0c-1.08.76-2.31,1.14-3.53,1.14h0c-1.91,0-3.8-.9-4.99-2.57ZM1355.83,238.99c-2.36-2.41-2.32-6.28.09-8.64h0c2.4-2.36,6.27-2.32,8.63.08h0c2.36,2.41,2.32,6.28-.08,8.64h0c-1.19,1.16-2.74,1.75-4.27,1.75h0c-1.59,0-3.16-.62-4.36-1.83ZM1149.26,237.8c-2.38-2.39-2.38-6.26,0-8.64h0c2.39-2.38,6.26-2.37,8.64.02h0c2.38,2.38,2.37,6.25-.02,8.63h0c-1.19,1.19-2.75,1.78-4.3,1.78h0c-1.57,0-3.13-.6-4.32-1.79ZM1339.25,224.53h0c-2.71-2.01-3.28-5.84-1.26-8.55h0c2.01-2.71,5.83-3.27,8.55-1.26h0c2.71,2,3.28,5.83,1.27,8.54h0c-1.2,1.62-3.04,2.47-4.91,2.47h0c-1.26,0-2.53-.4-3.63-1.2ZM1166.12,222.18c-1.97-2.73-1.37-6.54,1.36-8.52h0c2.73-1.98,6.54-1.37,8.53,1.36h0c1.97,2.73,1.36,6.54-1.36,8.53h0c-1.09.78-2.34,1.16-3.58,1.16h0c-1.88,0-3.75-.87-4.94-2.53ZM1320.61,212.85c-2.99-1.56-4.15-5.25-2.59-8.23h0c1.56-2.99,5.25-4.15,8.24-2.59h0c2.98,1.56,4.15,5.24,2.58,8.23h0c-1.09,2.1-3.21,3.29-5.41,3.29h0c-.96,0-1.92-.22-2.82-.69ZM1185.21,209.41c-1.53-3.01-.31-6.68,2.69-8.21h0c3.01-1.52,6.68-.32,8.2,2.7h0c1.53,3,.33,6.67-2.69,8.2h0c-.89.45-1.82.66-2.75.66h0c-2.23,0-4.37-1.22-5.45-3.35ZM1300.36,204.27c-3.21-1.07-4.94-4.52-3.87-7.72h0c1.07-3.19,4.53-4.92,7.72-3.86h0c3.19,1.06,4.92,4.52,3.86,7.71h0c-.84,2.56-3.23,4.18-5.79,4.18h0c-.64,0-1.28-.1-1.92-.32ZM1206.08,199.81c-1.03-3.22.74-6.65,3.96-7.68h0c3.21-1.03,6.64.74,7.67,3.96h0c1.03,3.2-.74,6.64-3.96,7.67h0c-.61.2-1.24.3-1.86.3h0c-2.58,0-4.98-1.66-5.81-4.24ZM1279.02,199c-3.33-.54-5.59-3.68-5.04-7.01h0c.55-3.33,3.68-5.58,7.01-5.04h0c3.33.55,5.59,3.68,5.04,7.01h0c-.49,3-3.08,5.12-6.01,5.12h0c-.33,0-.66-.02-1-.08ZM1228.21,193.62c-.51-3.33,1.78-6.44,5.12-6.95h0c3.33-.51,6.44,1.78,6.95,5.12h0c.51,3.33-1.78,6.44-5.12,6.95h0c-.31.05-.62.07-.93.07h0c-2.96,0-5.57-2.17-6.02-5.19ZM1257.1,197.15c-3.37-.02-6.08-2.77-6.07-6.14h0c.02-3.38,2.78-6.09,6.15-6.07h0c3.37.02,6.08,2.78,6.06,6.15h0c-.02,3.36-2.75,6.06-6.1,6.06h-.03Z"/>
      <path class="cls-1" d="M1136.12,424.7c-.4,0-.8-.04-1.2-.12-.39-.08-.77-.19-1.14-.35-.37-.15-.72-.35-1.06-.56-.32-.22-.64-.48-.93-.76-1.13-1.13-1.79-2.71-1.79-4.31s.66-3.18,1.79-4.31c1.41-1.41,3.53-2.08,5.51-1.67.39.07.77.19,1.14.35.37.15.72.34,1.06.56.34.22.64.48.93.76,1.14,1.13,1.79,2.71,1.79,4.31s-.65,3.17-1.79,4.31c-.29.29-.59.54-.93.76-.34.21-.69.41-1.06.56-.37.15-.75.27-1.14.35-.4.08-.79.12-1.19.12Z"/>
    </g>
    <g>
      <path class="cls-1" d="M1099.87,278.69c-.3,0-.6-.03-.9-.09-.29-.05-.58-.14-.85-.25s-.54-.25-.79-.43c-.24-.16-.48-.36-.69-.56-.21-.21-.41-.45-.57-.7-.16-.24-.31-.51-.42-.79-.11-.27-.2-.56-.27-.85-.06-.3-.09-.59-.09-.9s.03-.6.09-.9c.06-.28.15-.58.27-.85.11-.27.25-.54.42-.79.16-.24.36-.48.57-.69s.45-.41.69-.57c.25-.16.52-.31.79-.42s.57-.2.85-.26c1.49-.3,3.07.19,4.13,1.25.21.21.41.45.57.69.17.25.31.52.43.79s.2.57.26.85c.05.3.08.6.08.9s-.03.6-.08.9c-.06.3-.15.58-.26.85-.11.28-.25.55-.43.79-.16.25-.36.49-.57.7s-.44.4-.69.56c-.24.17-.51.31-.79.43-.28.11-.56.2-.86.25-.3.06-.59.09-.9.09Z"/>
      <path class="cls-1" d="M1107.95,256.98c-2.19-1.27-2.93-4.08-1.66-6.27h0c1.27-2.19,4.08-2.92,6.27-1.65h0c2.18,1.27,2.92,4.07,1.65,6.26h0c-.84,1.47-2.38,2.28-3.96,2.28h0c-.78,0-1.58-.2-2.3-.62ZM1120.63,237.17c-1.99-1.57-2.34-4.45-.77-6.43h0c1.56-1.99,4.44-2.34,6.43-.77h0c1.98,1.56,2.33,4.44.77,6.42h0c-.91,1.16-2.25,1.76-3.61,1.76h0c-.99,0-1.98-.33-2.82-.98ZM1135.91,219.29c-1.75-1.81-1.7-4.71.12-6.47h0c1.82-1.75,4.72-1.7,6.47.12h0c1.76,1.82,1.7,4.71-.11,6.47h0c-.9.85-2.03,1.28-3.18,1.28h0c-1.2,0-2.39-.47-3.3-1.4Z"/>
      <path class="cls-1" d="M1157.22,205.58c-1.21,0-2.39-.49-3.24-1.34-.85-.85-1.34-2.03-1.34-3.24s.49-2.38,1.34-3.24c.84-.85,2.02-1.34,3.24-1.34s2.38.49,3.24,1.34c.86.85,1.34,2.03,1.34,3.24s-.49,2.38-1.34,3.24c-.85.85-2.02,1.34-3.24,1.34Z"/>
    </g>
    <g>
      <path class="cls-1" d="M1198.54,183.52c-.3,0-.6-.03-.9-.08-.29-.06-.58-.15-.85-.26-.28-.11-.54-.25-.79-.43-.24-.16-.48-.36-.69-.56-.85-.85-1.34-2.03-1.34-3.25s.49-2.38,1.34-3.24c.21-.21.45-.4.69-.57.25-.16.52-.31.79-.42.27-.11.57-.2.85-.26.59-.11,1.2-.12,1.79,0,.3.06.58.15.85.26.28.11.55.25.79.42.25.17.49.36.69.57.85.85,1.34,2.03,1.34,3.24,0,.31-.03.6-.09.9-.05.3-.14.58-.25.85-.12.28-.27.55-.43.79-.16.25-.36.49-.57.7-.84.84-2.02,1.33-3.24,1.33Z"/>
      <path class="cls-1" d="M1263.65,507.38c-.17-2.51,1.74-4.7,4.26-4.86h0c2.52-.17,4.7,1.73,4.87,4.26h0c.16,2.52-1.75,4.7-4.27,4.87h-.31c-2.39,0-4.41-1.85-4.56-4.27ZM1243.72,511.55c-2.52-.18-4.42-2.38-4.23-4.9h0c.18-2.52,2.39-4.42,4.9-4.22h0c2.52.18,4.42,2.38,4.23,4.9h0c-.18,2.4-2.19,4.24-4.57,4.24h0c-.11,0-.22,0-.34-.02ZM1287.67,504.72c-.53-2.47,1.06-4.9,3.53-5.42h0c2.47-.53,4.9,1.05,5.42,3.52h0c.53,2.47-1.05,4.9-3.52,5.43h0c-.32.06-.64.1-.96.1h0c-2.12,0-4.02-1.48-4.48-3.63ZM1219.17,507.96h0c-2.47-.54-4.03-2.99-3.49-5.45h0c.55-2.47,2.99-4.03,5.46-3.49h0c2.47.55,4.04,2.99,3.49,5.45h0c-.47,2.14-2.37,3.6-4.47,3.6h0c-.33,0-.66-.04-.99-.11ZM1311.06,498.65c-.88-2.38.34-5.01,2.72-5.88h0c2.37-.87,5,.35,5.87,2.72h0c.87,2.37-.34,5-2.71,5.87h0c-.53.19-1.06.29-1.59.29h0c-1.86,0-3.61-1.14-4.29-2.99ZM1195.39,500.89c-2.37-.9-3.56-3.53-2.68-5.9h0c.9-2.36,3.54-3.56,5.9-2.67h0c2.37.9,3.56,3.53,2.67,5.9h0c-.69,1.83-2.43,2.96-4.28,2.96h0c-.54,0-1.08-.09-1.61-.3ZM1333.32,489.3c-1.2-2.23-.38-5.01,1.84-6.21h0c2.23-1.21,5.01-.39,6.21,1.84h0c1.21,2.22.39,5.01-1.84,6.21h0c-.69.38-1.43.55-2.18.55h0c-1.63,0-3.2-.87-4.03-2.39ZM1172.85,490.49c-2.22-1.22-3.02-4.01-1.8-6.23h0c1.23-2.21,4.01-3.01,6.23-1.79h0c2.21,1.22,3.01,4.01,1.79,6.22h0c-.83,1.52-2.39,2.37-4.01,2.37h0c-.75,0-1.51-.18-2.21-.57ZM1354.03,476.86c-1.51-2.02-1.09-4.89.94-6.4h0c2.03-1.51,4.9-1.09,6.41.95h0c1.51,2.02,1.09,4.89-.95,6.4h0c-.81.61-1.77.91-2.73.91h0c-1.39,0-2.78-.64-3.67-1.85ZM1152.04,476.98c-2.01-1.53-2.42-4.4-.9-6.41h0c1.53-2.01,4.39-2.42,6.42-.9h0c2.01,1.53,2.41,4.4.89,6.41h0c-.9,1.19-2.27,1.82-3.65,1.82h0c-.97,0-1.93-.31-2.76-.93ZM1372.77,461.62c-1.78-1.8-1.77-4.7.02-6.48h.01c1.79-1.78,4.69-1.76,6.47.03h0c1.78,1.8,1.76,4.69-.03,6.48h0c-.9.88-2.05,1.32-3.23,1.32h0c-1.17,0-2.35-.46-3.24-1.35ZM1133.35,460.66h0c-1.78-1.79-1.77-4.69.02-6.47h0c1.8-1.78,4.7-1.77,6.48.02h0c1.78,1.79,1.77,4.69-.02,6.47h0c-.9.9-2.07,1.33-3.23,1.33h0c-1.18,0-2.36-.45-3.26-1.35ZM1389.17,443.86c-2.01-1.53-2.41-4.4-.89-6.41h0c1.53-2.02,4.39-2.42,6.41-.9h0c2.01,1.53,2.41,4.4.89,6.42h0c-.9,1.18-2.27,1.81-3.65,1.81h0c-.97,0-1.93-.31-2.76-.93ZM1117.16,441.87c-1.52-2.03-1.09-4.9.94-6.41h0c2.02-1.52,4.89-1.09,6.41.94h0c1.51,2.02,1.09,4.89-.95,6.41h0c-.81.61-1.77.91-2.73.91h0c-1.39,0-2.78-.64-3.67-1.84ZM1402.9,423.96c-2.22-1.22-3.02-4.01-1.79-6.23h0c1.22-2.21,4.01-3.01,6.22-1.78h0c2.22,1.22,3.02,4.01,1.79,6.22h0c-.83,1.51-2.4,2.36-4.01,2.36h0c-.75,0-1.51-.18-2.21-.57ZM1103.79,420.96c-1.2-2.23-.39-5.01,1.84-6.21h0c2.22-1.21,5.01-.39,6.21,1.83h0c1.21,2.23.39,5.01-1.84,6.22h0c-.69.38-1.43.55-2.18.55h0c-1.63,0-3.2-.87-4.03-2.39ZM1413.64,402.3c-2.36-.9-3.55-3.53-2.66-5.9h0c.9-2.36,3.53-3.55,5.9-2.66h0c2.37.9,3.56,3.53,2.67,5.9h0c-.7,1.83-2.44,2.96-4.28,2.96h0c-.54,0-1.09-.1-1.63-.31ZM1421.19,379.33c-2.47-.55-4.03-2.99-3.48-5.46h0c.54-2.46,2.99-4.02,5.45-3.48h0c2.47.55,4.03,2.99,3.48,5.46h0c-.47,2.14-2.36,3.59-4.47,3.59h0c-.32,0-.66-.04-.99-.11ZM1425.36,355.53c-2.52-.19-4.42-2.39-4.22-4.91h0c.18-2.52,2.38-4.41,4.9-4.22h0c2.52.19,4.42,2.39,4.22,4.91h0c-.18,2.4-2.19,4.23-4.56,4.23h0c-.12,0-.23,0-.35,0ZM1421.25,327.11c-.17-2.52,1.74-4.7,4.26-4.86h0c2.52-.17,4.7,1.74,4.87,4.26h0c.16,2.52-1.75,4.71-4.27,4.87h0c-.1,0-.2,0-.31,0h0c-2.39,0-4.41-1.86-4.56-4.28ZM1418.05,303.83h0c-.52-2.47,1.06-4.9,3.53-5.43h0c2.47-.52,4.9,1.07,5.43,3.54h0c.52,2.47-1.06,4.9-3.54,5.42h0c-.32.07-.63.1-.95.1h0c-2.12,0-4.02-1.48-4.48-3.63ZM1411.55,281.24c-.88-2.37.35-5.01,2.72-5.87h0c2.37-.87,5.01.35,5.88,2.72h0c.88,2.37-.35,5.01-2.72,5.87h0c-.52.19-1.05.29-1.58.29h0c-1.86,0-3.61-1.15-4.29-3ZM1401.9,259.84h0c-1.2-2.22-.38-5,1.85-6.2h0c2.23-1.21,4.99-.38,6.21,1.85h0c1.2,2.22.37,5-1.85,6.21h0c-.69.37-1.44.55-2.18.55h0c-1.63,0-3.21-.88-4.03-2.41ZM1389.28,240.02c-1.51-2.03-1.08-4.9.96-6.4h0c2.02-1.51,4.89-1.09,6.4.95h0c1.51,2.03,1.08,4.9-.95,6.41h0c-.82.6-1.78.9-2.73.9h0c-1.4,0-2.79-.64-3.68-1.85ZM1373.98,222.17c-1.78-1.79-1.76-4.69.04-6.47h0c1.79-1.78,4.69-1.76,6.47.04h0c1.78,1.79,1.76,4.69-.03,6.47h0c-.9.89-2.06,1.32-3.23,1.32h0c-1.18,0-2.36-.46-3.26-1.36ZM1356.31,206.68c-2.01-1.54-2.41-4.41-.88-6.42h0c1.54-2.01,4.41-2.41,6.42-.87h0c2.01,1.53,2.41,4.4.89,6.41h0c-.91,1.19-2.27,1.81-3.65,1.81h0c-.97,0-1.94-.31-2.77-.93ZM1336.61,193.83h0c-2.21-1.22-3.01-4.01-1.78-6.22h0c1.23-2.22,4.01-3.01,6.23-1.79h0c2.21,1.23,3.01,4.02,1.78,6.23h0c-.83,1.51-2.4,2.36-4.01,2.36h0c-.75,0-1.52-.18-2.22-.58ZM1315.29,183.93c-2.36-.9-3.55-3.54-2.66-5.9h0c.91-2.37,3.54-3.56,5.91-2.66h0c2.36.9,3.55,3.54,2.65,5.9h0c-.7,1.83-2.44,2.95-4.28,2.95h0c-.54,0-1.09-.09-1.63-.3ZM1292.76,177.18c-2.47-.55-4.02-2.99-3.47-5.46h0c.54-2.47,2.99-4.02,5.46-3.48h0c2.46.56,4.02,3,3.47,5.47h0c-.48,2.13-2.37,3.58-4.47,3.58h0c-.33,0-.66-.04-1-.11ZM1217.29,173.24c-.53-2.47,1.06-4.9,3.53-5.42h.01c2.47-.52,4.89,1.07,5.41,3.54h0c.52,2.47-1.06,4.89-3.54,5.42h0c-.32.06-.63.09-.95.09h0c-2.12,0-4.02-1.48-4.47-3.63ZM1269.51,173.73c-2.52-.19-4.41-2.4-4.21-4.91h0c.19-2.52,2.39-4.42,4.91-4.22h0c2.51.19,4.41,2.39,4.21,4.91h0c-.18,2.4-2.19,4.23-4.56,4.23h0c-.12,0-.23,0-.36,0ZM1241.14,169.32c-.16-2.52,1.75-4.7,4.27-4.86h0c2.52-.16,4.7,1.75,4.86,4.27h0c.16,2.52-1.75,4.7-4.27,4.86h0c-.1,0-.2,0-.31,0h0c-2.39,0-4.41-1.86-4.56-4.28Z"/>
      <path class="cls-1" d="M1097.76,401.13c-.3,0-.6-.03-.9-.09-.3-.06-.58-.15-.85-.26-.27-.11-.54-.25-.79-.42-.24-.17-.48-.36-.69-.57s-.41-.45-.57-.7c-.16-.24-.31-.51-.43-.78-.11-.28-.2-.57-.25-.87-.06-.3-.09-.59-.09-.88s.03-.6.09-.9c.05-.3.14-.58.25-.86.12-.27.26-.54.43-.78.16-.25.36-.49.57-.7.21-.2.45-.4.69-.57.25-.16.52-.31.79-.42.28-.11.56-.2.85-.27.59-.11,1.2-.11,1.79,0,.3.06.58.15.86.27.27.11.54.25.79.42.24.17.48.37.69.57.21.21.41.45.57.7.16.24.31.51.43.78.11.29.19.57.25.86.06.3.09.59.09.9,0,1.2-.49,2.38-1.34,3.24-.21.21-.45.4-.69.57-.25.16-.52.31-.79.42-.28.11-.56.2-.86.26-.29.06-.6.09-.9.09Z"/>
    </g>
    <g>
      <path class="cls-1" d="M1082.8,258.81c-.67,0-1.32-.27-1.8-.74-.12-.12-.22-.25-.31-.39-.09-.14-.17-.28-.23-.44-.06-.15-.11-.32-.14-.48-.04-.16-.05-.34-.05-.5,0-.67.27-1.32.74-1.8.59-.59,1.47-.85,2.3-.69.16.03.32.08.47.14.15.06.31.14.44.23.14.09.27.2.39.31.48.48.75,1.13.75,1.8,0,.16-.02.34-.05.5-.03.16-.08.33-.14.48-.07.15-.14.29-.23.44-.09.13-.2.26-.32.39-.11.11-.24.22-.39.32-.13.09-.29.17-.44.23-.15.06-.31.11-.47.14-.17.03-.34.05-.5.05Z"/>
      <path class="cls-1" d="M1400.87,463.64c-1.07-.91-1.2-2.51-.29-3.58h0c.92-1.07,2.52-1.19,3.59-.28h0c1.07.91,1.19,2.51.27,3.58h0c-.5.59-1.21.89-1.93.89h0c-.58,0-1.17-.19-1.65-.61ZM1409.51,453.08c-1.13-.83-1.36-2.42-.53-3.55h0c.83-1.13,2.43-1.37,3.56-.53h0c1.12.83,1.36,2.42.53,3.55h0c-.5.68-1.27,1.04-2.04,1.04h0c-.53,0-1.06-.16-1.52-.51ZM1417.38,441.94c-1.19-.75-1.54-2.33-.78-3.51h0c.75-1.18,2.33-1.54,3.51-.78h0c1.19.75,1.54,2.33.78,3.51h0c-.49.76-1.3,1.18-2.15,1.18h0c-.47,0-.94-.12-1.36-.4ZM1424.45,430.26c-1.23-.66-1.7-2.21-1.03-3.44h0c.66-1.24,2.21-1.7,3.45-1.04h0c1.23.67,1.69,2.22,1.03,3.45h0c-.46.86-1.33,1.33-2.24,1.33h0c-.42,0-.82-.09-1.21-.31ZM1430.66,418.11c-1.28-.58-1.85-2.09-1.27-3.36h0c.57-1.28,2.08-1.85,3.36-1.28h0c1.28.58,1.85,2.09,1.27,3.37h0c-.43.95-1.35,1.5-2.33,1.5h0c-.35,0-.7-.07-1.04-.22ZM1435.99,405.55c-1.32-.48-1.99-1.94-1.52-3.27h0c.49-1.31,1.94-1.99,3.27-1.51h0c1.31.48,1.99,1.94,1.51,3.27h0c-.38,1.03-1.34,1.67-2.38,1.66h0c-.3,0-.59-.04-.88-.15ZM1440.41,392.64c-1.35-.39-2.14-1.8-1.74-3.15h0c.39-1.34,1.79-2.13,3.14-1.74h0c1.35.39,2.13,1.8,1.74,3.15h0c-.32,1.11-1.34,1.83-2.44,1.83h0c-.23,0-.47-.03-.7-.09ZM1443.89,379.43c-1.37-.29-2.26-1.64-1.96-3.01h0c.3-1.37,1.64-2.25,3.01-1.96h0c1.37.3,2.25,1.65,1.96,3.02h0c-.25,1.19-1.31,2.01-2.48,2.01h0c-.18,0-.36-.02-.53-.06ZM1446.41,366.02c-1.39-.19-2.36-1.47-2.18-2.87h0c.19-1.39,1.47-2.36,2.87-2.17h0c1.39.18,2.37,1.47,2.18,2.86h0c-.18,1.28-1.27,2.2-2.52,2.2h0c-.11,0-.23,0-.35-.02ZM1447.98,352.46c-1.4-.09-2.46-1.31-2.37-2.71h0c.09-1.4,1.3-2.46,2.71-2.37h0c1.39.09,2.46,1.3,2.37,2.71h0c-.09,1.34-1.21,2.37-2.54,2.37h-.16ZM1446.02,336.28c0-1.4,1.13-2.54,2.53-2.55h0c1.4,0,2.54,1.13,2.55,2.53h0c0,1.4-1.13,2.55-2.53,2.55h0c-1.4,0-2.54-1.13-2.54-2.53ZM1445.49,322.83h0c-.1-1.4.95-2.62,2.35-2.73h0c1.4-.1,2.62.95,2.73,2.35h0c.1,1.4-.95,2.61-2.35,2.73h-.19c-1.31,0-2.43-1.02-2.53-2.35ZM1444.03,309.46c-.2-1.38.75-2.68,2.15-2.88h0c1.38-.2,2.68.75,2.88,2.15h0c.2,1.38-.75,2.68-2.15,2.88h0c-.12.02-.24.03-.37.03h0c-1.24,0-2.33-.92-2.51-2.18ZM1441.61,296.22h0c-.31-1.37.57-2.73,1.93-3.03h0c1.37-.3,2.74.57,3.03,1.94h0c.31,1.37-.56,2.73-1.93,3.02h0c-.18.04-.37.06-.55.06h0c-1.17,0-2.22-.8-2.48-1.99ZM1438.25,283.19h0c-.4-1.34.37-2.76,1.71-3.15h0c1.35-.41,2.77.37,3.16,1.71h0c.4,1.35-.37,2.77-1.71,3.16h0c-.24.07-.49.1-.73.1h0c-1.09,0-2.11-.71-2.43-1.82ZM1433.97,270.44c-.5-1.32.16-2.79,1.49-3.28h0c1.31-.5,2.78.16,3.28,1.49h0c.49,1.31-.17,2.78-1.49,3.28h0c-.3.1-.6.16-.9.16h0c-1.03,0-1.99-.63-2.38-1.65ZM1428.79,258.03c-.59-1.27-.03-2.78,1.25-3.37h0c1.27-.59,2.78-.03,3.37,1.24h0c.59,1.28.03,2.79-1.24,3.38h0c-.35.16-.71.23-1.07.23h0c-.97,0-1.88-.55-2.31-1.49ZM1422.74,246.02c-.68-1.23-.22-2.78,1.01-3.45h0c1.23-.68,2.78-.23,3.45,1.01h0c.67,1.22.22,2.77-1.01,3.45h0c-.39.21-.8.31-1.22.31h0c-.9,0-1.77-.48-2.23-1.32ZM1087.76,246.34c-1.23-.68-1.67-2.23-.99-3.46h0c.68-1.23,2.23-1.68,3.46-.99h0c1.22.68,1.67,2.23.99,3.45h0c-.47.84-1.33,1.31-2.23,1.31h0c-.42,0-.83-.1-1.23-.32ZM1415.84,234.47c-.76-1.18-.42-2.76.76-3.51h0c1.17-.76,2.75-.43,3.51.75h0c.76,1.18.43,2.76-.75,3.51h0c-.43.28-.91.42-1.38.42h0c-.83,0-1.65-.42-2.14-1.17ZM1094.64,234.55c-1.18-.77-1.51-2.35-.74-3.52h0c.76-1.18,2.34-1.51,3.52-.74h0c1.18.77,1.51,2.34.74,3.52h0c-.49.75-1.3,1.15-2.14,1.15h0c-.48,0-.96-.13-1.38-.41ZM1408.15,223.44c-.84-1.13-.62-2.72.5-3.56h0c1.12-.84,2.72-.62,3.56.5h0c.84,1.13.62,2.72-.5,3.56h0c-.46.35-1,.52-1.53.52h0c-.77,0-1.54-.36-2.03-1.02ZM1102.35,223.29c-1.12-.84-1.33-2.44-.49-3.56h0c.85-1.12,2.44-1.34,3.56-.49h0c1.13.84,1.34,2.44.5,3.56h0c-.51.66-1.26,1.01-2.03,1.01h0c-.53,0-1.07-.17-1.54-.52ZM1399.68,212.97c-.93-1.06-.81-2.67.24-3.59h0c1.07-.92,2.67-.8,3.59.25h0c.93,1.07.81,2.67-.24,3.59h0c-.49.42-1.08.62-1.68.62h0c-.7,0-1.41-.3-1.91-.87ZM1110.83,212.61c-1.06-.93-1.16-2.53-.23-3.59h0c.93-1.06,2.53-1.16,3.59-.23h0c1.06.93,1.16,2.53.23,3.59h0c-.5.57-1.21.86-1.91.86h0c-.6,0-1.19-.2-1.68-.63ZM1390.49,203.14c-1-1-1-2.6,0-3.6h0c1-.99,2.6-1,3.6,0h0c.99,1,.99,2.6,0,3.6h0c-.5.5-1.15.74-1.8.74h0c-.65,0-1.3-.24-1.8-.74ZM1120.05,202.55c-.99-1-.98-2.6.02-3.59h0c1-.99,2.6-.99,3.6.02h0c.99,1,.98,2.6-.02,3.59h0c-.5.49-1.14.73-1.79.73h0c-.65,0-1.31-.24-1.81-.75ZM1380.65,193.97c-1.07-.93-1.18-2.53-.27-3.59h0c.93-1.06,2.52-1.17,3.59-.25h0c1.06.92,1.17,2.52.25,3.58h0c-.5.59-1.21.89-1.92.89h0c-.59,0-1.18-.2-1.66-.62ZM1129.96,193.17c-.92-1.07-.79-2.67.27-3.58h0c1.06-.92,2.67-.79,3.58.27h0c.92,1.06.79,2.67-.28,3.58h0c-.48.41-1.07.61-1.65.61h0c-.72,0-1.43-.3-1.93-.89ZM1370.16,185.52c-1.12-.84-1.35-2.43-.51-3.56h0c.84-1.12,2.44-1.35,3.56-.51h0c1.13.84,1.35,2.43.51,3.56h0c-.5.66-1.26,1.02-2.03,1.02h0c-.53,0-1.07-.16-1.53-.51ZM1140.5,184.51c-.83-1.13-.6-2.72.53-3.56h0c1.13-.83,2.72-.6,3.56.53h0c.83,1.13.6,2.73-.53,3.56h0c-.46.34-.99.5-1.52.5h0c-.77,0-1.55-.36-2.04-1.03ZM1359.11,177.82c-1.19-.75-1.53-2.33-.76-3.51h0c.76-1.18,2.33-1.53,3.51-.76h0c1.18.76,1.53,2.34.76,3.52h0c-.49.75-1.3,1.16-2.14,1.16h0c-.48,0-.96-.13-1.37-.41ZM1151.63,176.62c-.75-1.19-.41-2.76.77-3.51h0c1.19-.76,2.76-.42,3.52.77h0c.75,1.18.41,2.76-.78,3.51h0c-.42.27-.9.4-1.36.4h0c-.83,0-1.66-.41-2.15-1.17ZM1347.53,170.95c-1.23-.67-1.69-2.22-1.01-3.45h0c.67-1.24,2.22-1.69,3.45-1.02h0c1.23.68,1.68,2.22,1.01,3.46h0c-.46.84-1.33,1.32-2.23,1.32h0c-.42,0-.83-.1-1.22-.32ZM1163.29,169.54c-.67-1.23-.2-2.78,1.03-3.45h0c1.23-.67,2.78-.21,3.45,1.03h0c.67,1.23.21,2.78-1.03,3.45h0c-.39.2-.79.31-1.21.31h0c-.91,0-1.77-.49-2.24-1.33ZM1335.49,164.9c-1.28-.59-1.84-2.1-1.26-3.37h0c.59-1.28,2.1-1.84,3.38-1.26h0c1.27.59,1.84,2.1,1.25,3.38h0c-.43.93-1.35,1.49-2.31,1.49h0c-.36,0-.72-.08-1.06-.23ZM1175.43,163.32c-.58-1.28-.01-2.79,1.26-3.37h0c1.28-.58,2.79,0,3.37,1.26h0c.58,1.28.02,2.79-1.26,3.37h0c-.35.15-.7.23-1.05.23h0c-.97,0-1.89-.56-2.32-1.5ZM1323.05,159.73h0c-1.32-.49-1.98-1.95-1.5-3.28h0c.5-1.31,1.96-1.98,3.28-1.49h0c1.31.49,1.98,1.95,1.49,3.27h0c-.38,1.03-1.34,1.66-2.38,1.66h0c-.3,0-.59-.05-.89-.16ZM1187.97,157.96c-.49-1.32.19-2.78,1.51-3.27h0c1.32-.49,2.78.18,3.27,1.51h0c.49,1.31-.18,2.78-1.51,3.27h0c-.28.11-.58.16-.87.16h0c-1.04,0-2.01-.64-2.39-1.67ZM1310.28,155.48c-1.34-.41-2.12-1.81-1.72-3.16h0c.4-1.34,1.81-2.12,3.15-1.72h0c1.34.4,2.12,1.81,1.73,3.15h0c-.34,1.11-1.34,1.83-2.44,1.83h0c-.24,0-.48-.04-.72-.1ZM1200.87,153.53c-.4-1.35.39-2.76,1.74-3.15h0c1.34-.39,2.76.39,3.14,1.74h0c.4,1.34-.39,2.76-1.73,3.15h0c-.24.06-.48.09-.71.09h0c-1.11,0-2.12-.72-2.44-1.83ZM1297.25,152.14h0c-1.37-.3-2.25-1.66-1.95-3.02h0c.31-1.37,1.66-2.25,3.03-1.95h0c1.37.31,2.24,1.66,1.94,3.03h0c-.25,1.19-1.31,2-2.48,2h0c-.18,0-.37-.02-.54-.06ZM1214.06,150.03c-.3-1.37.58-2.73,1.95-3.02h0c1.37-.3,2.73.59,3.02,1.95h0c.3,1.38-.58,2.73-1.95,3.02h0c-.18.04-.36.06-.54.06h0c-1.17,0-2.23-.82-2.48-2.01ZM1284,149.75c-1.39-.2-2.36-1.49-2.16-2.88h0c.2-1.39,1.5-2.36,2.88-2.16h0c1.39.2,2.36,1.49,2.16,2.88h0c-.18,1.27-1.27,2.18-2.51,2.18h0c-.12,0-.24,0-.37-.02ZM1227.46,147.47c-.19-1.38.77-2.68,2.17-2.87h0c1.39-.19,2.68.77,2.87,2.17h0c.19,1.39-.77,2.68-2.17,2.87h0c-.12.02-.24.03-.36.03h0c-1.25,0-2.34-.93-2.52-2.2ZM1270.62,148.31c-1.4-.1-2.45-1.32-2.35-2.72h0c.1-1.4,1.31-2.46,2.72-2.36h0c1.4.1,2.45,1.32,2.35,2.72h0c-.09,1.34-1.21,2.37-2.53,2.37h0c-.06,0-.12-.01-.18-.01ZM1241.01,145.89c-.1-1.4.97-2.61,2.36-2.71h0c1.4-.1,2.62.96,2.72,2.36h0c.09,1.4-.97,2.61-2.36,2.72h-.18c-1.32,0-2.44-1.03-2.53-2.37ZM1257.17,147.81h0c-1.4,0-2.54-1.14-2.53-2.55h0c0-1.4,1.14-2.53,2.54-2.53h0c1.4,0,2.54,1.15,2.54,2.55h0c0,1.39-1.15,2.53-2.55,2.53h0Z"/>
      <path class="cls-1" d="M1393.19,474.4c-.67,0-1.32-.28-1.79-.74s-.75-1.13-.75-1.8c0-.16.02-.33.05-.5.03-.16.08-.31.14-.47.07-.15.14-.31.23-.45.09-.13.2-.26.31-.39.59-.59,1.48-.85,2.3-.69.16.03.33.08.48.14.15.07.29.14.44.23.14.09.27.2.39.31.12.12.22.25.31.39.09.14.17.3.23.45.06.15.11.31.14.47.04.17.05.34.05.5,0,.67-.26,1.33-.74,1.8-.48.47-1.13.74-1.8.74Z"/>
    </g>
    <g>
      <path class="cls-1" d="M1364.8,499.09c-.67,0-1.32-.26-1.79-.74-.48-.47-.75-1.12-.75-1.79,0-.17.02-.34.05-.5s.08-.33.14-.48c.07-.15.14-.31.23-.44.09-.14.2-.27.31-.39.12-.12.25-.22.39-.31.14-.09.28-.17.45-.23.15-.06.31-.11.47-.14.82-.17,1.71.1,2.3.69.12.11.22.24.32.39.09.13.17.29.23.44.06.15.11.32.14.48.04.16.05.32.05.5,0,.67-.26,1.32-.74,1.79-.12.12-.24.22-.39.32-.14.08-.28.16-.44.22-.15.07-.32.11-.48.15-.16.03-.33.04-.5.04Z"/>
      <path class="cls-1" d="M1261.01,529.81c-.05-1.4,1.05-2.58,2.45-2.62h0c1.4-.05,2.58,1.05,2.63,2.45h0c.05,1.4-1.05,2.57-2.45,2.62h0s-.06,0-.09,0h0c-1.36,0-2.49-1.09-2.54-2.46ZM1249.97,532.27c-1.4-.04-2.5-1.22-2.45-2.62h0c.05-1.4,1.22-2.5,2.62-2.45h0c1.4.04,2.5,1.22,2.45,2.62h0c-.04,1.37-1.17,2.46-2.53,2.46h0s-.06,0-.09,0ZM1236.34,531.33c-1.4-.15-2.42-1.4-2.27-2.8h0c.14-1.39,1.39-2.41,2.79-2.27h0c1.4.14,2.41,1.39,2.27,2.8h0c-.13,1.3-1.24,2.28-2.53,2.28h0c-.08,0-.17,0-.25,0ZM1274.49,529.05c-.15-1.39.87-2.64,2.26-2.79h0c1.39-.15,2.64.87,2.79,2.26h0c.14,1.4-.87,2.65-2.27,2.8h0c-.08,0-.17,0-.26,0h0c-1.28,0-2.39-.97-2.52-2.28ZM1222.79,529.43c-1.38-.24-2.3-1.57-2.06-2.95h0c.24-1.38,1.56-2.31,2.94-2.06h0c1.38.24,2.31,1.57,2.06,2.95h0c-.21,1.23-1.29,2.1-2.5,2.1h0c-.14,0-.3-.01-.45-.03ZM1287.88,527.35c-.25-1.38.67-2.71,2.06-2.94h0c1.38-.25,2.71.67,2.95,2.05h0c.24,1.38-.68,2.71-2.06,2.95h0c-.14.02-.3.04-.44.04h0c-1.22,0-2.29-.88-2.5-2.11ZM1209.42,526.57c-1.36-.34-2.2-1.72-1.85-3.08h0c.34-1.36,1.72-2.19,3.08-1.85h0c1.36.35,2.2,1.73,1.85,3.09h0c-.3,1.15-1.33,1.92-2.47,1.92h0c-.2,0-.41-.03-.61-.08ZM1301.1,524.72c-.34-1.36.49-2.75,1.85-3.09h0c1.36-.34,2.75.49,3.08,1.85h0c.35,1.36-.48,2.75-1.84,3.08h0c-.21.06-.42.08-.62.08h0c-1.14,0-2.18-.77-2.47-1.92ZM1196.27,522.78c-1.33-.44-2.06-1.88-1.63-3.22h0c.44-1.33,1.87-2.06,3.2-1.63h0c1.34.44,2.07,1.88,1.63,3.22h0c-.35,1.07-1.34,1.75-2.41,1.75h0c-.26,0-.53-.04-.79-.12ZM1314.13,521.15c-.44-1.33.29-2.78,1.62-3.22h0c1.34-.44,2.78.3,3.21,1.63h0c.44,1.33-.3,2.77-1.63,3.22h0c-.26.08-.53.12-.79.12h0c-1.07,0-2.06-.68-2.41-1.75ZM1183.43,518.06h0c-1.3-.53-1.92-2.01-1.39-3.32h0c.53-1.3,2.01-1.92,3.32-1.39h0c1.29.53,1.92,2.01,1.39,3.32h0c-.41.99-1.35,1.59-2.36,1.59h0c-.31,0-.64-.06-.96-.19ZM1326.86,516.66c-.53-1.3.09-2.79,1.39-3.32h0c1.29-.53,2.79.09,3.32,1.39h0c.53,1.3-.09,2.79-1.39,3.32h0c-.32.13-.64.19-.97.19h0c-1,0-1.95-.6-2.35-1.59ZM1170.96,512.46c-1.26-.62-1.78-2.15-1.16-3.41h0c.62-1.26,2.15-1.78,3.41-1.16h0c1.26.62,1.78,2.15,1.16,3.41h0c-.45.9-1.35,1.42-2.29,1.42h0c-.38,0-.76-.09-1.12-.26ZM1339.24,511.29c-.62-1.26-.1-2.79,1.15-3.41h0c1.26-.62,2.79-.1,3.41,1.16h0c.62,1.26.1,2.78-1.16,3.4h0c-.37.18-.75.26-1.13.26h0c-.94,0-1.84-.52-2.28-1.41ZM1158.91,505.98c-1.21-.7-1.62-2.27-.92-3.48h0c.71-1.21,2.27-1.62,3.48-.92h0c1.21.71,1.63,2.27.92,3.48h0c-.48.81-1.32,1.26-2.2,1.26h0c-.44,0-.87-.11-1.28-.35ZM1351.2,505.05c-.71-1.21-.3-2.77.92-3.48h0c1.21-.7,2.77-.3,3.48.92h0c.7,1.21.3,2.77-.92,3.48h0c-.4.23-.84.35-1.28.35h0c-.88,0-1.72-.45-2.2-1.26ZM1147.35,498.67c-1.16-.79-1.46-2.38-.67-3.54h0c.79-1.16,2.38-1.45,3.54-.66h0c1.16.78,1.45,2.37.66,3.53h0c-.49.72-1.29,1.11-2.1,1.11h0c-.5,0-1-.14-1.43-.44ZM1136.34,490.57c-1.1-.87-1.29-2.48-.42-3.58h0c.87-1.1,2.47-1.29,3.57-.42h0c1.1.88,1.29,2.47.42,3.57h0c-.5.64-1.24.97-1.99.97h0c-.55,0-1.11-.17-1.58-.54ZM1125.92,481.71c-1.04-.95-1.12-2.55-.17-3.59h0c.95-1.04,2.56-1.11,3.6-.16h0c1.04.95,1.11,2.55.16,3.59h0c-.5.55-1.19.82-1.88.82h0c-.61,0-1.22-.21-1.71-.66ZM1116.14,472.16h0c-.97-1.02-.94-2.63.08-3.6h0c1.02-.97,2.62-.93,3.6.09h0c.97,1.01.93,2.62-.09,3.59h0c-.49.47-1.12.7-1.75.7h0c-.67,0-1.34-.26-1.84-.78ZM1107.06,461.93c-.9-1.08-.74-2.69.34-3.58h0c1.08-.9,2.69-.74,3.58.34h0c.9,1.09.74,2.69-.34,3.58h0c-.48.4-1.05.59-1.62.59h0c-.73,0-1.47-.32-1.96-.93ZM1098.7,451.11c-.81-1.14-.55-2.74.59-3.55h0c1.14-.82,2.74-.56,3.55.59h0c.81,1.14.55,2.73-.59,3.55h0c-.45.32-.97.47-1.47.47h0c-.79,0-1.58-.37-2.08-1.06ZM1091.14,439.71c-.74-1.19-.37-2.76.83-3.49h0c1.19-.74,2.76-.37,3.5.83h0c.73,1.19.36,2.76-.84,3.49h0c-.41.27-.88.39-1.32.39h0c-.85,0-1.69-.44-2.17-1.22Z"/>
      <path class="cls-1" d="M1086.62,429.14c-.16,0-.34-.02-.5-.05-.16-.04-.32-.08-.47-.15-.15-.06-.31-.14-.45-.23-.13-.09-.26-.19-.38-.31-.12-.11-.23-.24-.32-.39-.09-.13-.16-.28-.23-.44-.06-.15-.11-.31-.14-.48-.03-.16-.05-.33-.05-.49,0-.67.27-1.33.74-1.8.59-.59,1.48-.87,2.3-.7.16.04.33.08.48.15.15.06.3.14.44.23.14.09.26.19.39.32.11.11.22.24.31.39.09.13.17.29.23.44.06.15.11.32.14.48.04.16.05.32.05.5,0,.16-.01.33-.05.49-.03.16-.08.32-.14.48s-.14.31-.23.44c-.09.14-.2.28-.31.39-.48.48-1.13.75-1.8.75Z"/>
    </g>
  </g>
  <g>
    <path class="cls-1" d="M1050.52,370.29c0,4.61-.93,8.89-2.8,12.84-1.87,3.95-4.36,7.33-7.49,10.13-3.13,2.8-6.78,5-10.95,6.59-4.17,1.59-8.56,2.39-13.17,2.39h-69.81v-21.4h69.81c8.12,0,12.18-3.51,12.18-10.54v-6.42c0-3.07-1.23-5.46-3.7-7.16-2.47-1.7-5.3-2.55-8.48-2.55h-69.81v-21.73h69.81c8.12,0,12.18-3.29,12.18-9.88v-6.42c0-7.13-4.06-10.7-12.18-10.7h-69.81v-21.07h69.81c4.61,0,9,.77,13.17,2.31,4.17,1.54,7.82,3.7,10.95,6.5,3.13,2.8,5.62,6.15,7.49,10.04,1.86,3.9,2.8,8.21,2.8,12.92v6.42c0,7.57-2.91,14.43-8.73,20.58,1.75,1.98,3.21,3.79,4.36,5.43,1.15,1.65,2.06,3.4,2.72,5.27.66,1.87,1.1,4.09,1.32,6.67.22,2.58.33,5.84.33,9.8Z"/>
    <path class="cls-1" d="M1180.92,370.36c0,4.6-.93,8.87-2.8,12.81-1.87,3.94-4.36,7.31-7.49,10.1-3.13,2.79-6.78,4.98-10.95,6.57-4.17,1.59-8.56,2.38-13.17,2.38h-40.34c-4.83,0-9.33-.79-13.5-2.39-4.17-1.59-7.82-3.79-10.95-6.59-3.13-2.8-5.6-6.15-7.41-10.04-1.81-3.89-2.72-8.2-2.72-12.92v-54.33c0-4.39.98-8.5,2.94-12.35,1.96-3.84,4.55-7.22,7.76-10.13,3.21-2.91,6.87-5.19,10.97-6.83,4.1-1.65,8.34-2.47,12.74-2.47h72.77v21.07h-72.77c-1.54,0-3.02.28-4.45.82-1.43.55-2.72,1.32-3.87,2.31-1.15.99-2.09,2.14-2.8,3.46-.72,1.32-1.07,2.69-1.07,4.12v54.33c0,7.03,4.07,10.54,12.21,10.54h40.44c8.14,0,12.21-3.51,12.21-10.54v-5.6c0-1.42-.36-2.8-1.07-4.12-.71-1.32-1.65-2.47-2.8-3.46-1.15-.99-2.47-1.75-3.95-2.31-1.48-.55-2.94-.82-4.36-.82h-40.34v-21.07h40.34c4.28,0,8.48.82,12.6,2.47,4.12,1.64,7.79,3.89,11.03,6.73,3.24,2.85,5.85,6.22,7.82,10.1,1.98,3.89,2.96,8.08,2.96,12.56v5.58Z"/>
    <path class="cls-1" d="M1345.23,370.29c0,4.61-.93,8.89-2.8,12.84-1.87,3.95-4.36,7.33-7.49,10.13-3.13,2.8-6.78,5-10.95,6.59-4.17,1.59-8.56,2.39-13.17,2.39h-74.42c-4.83,0-9.33-.79-13.5-2.39-4.17-1.59-7.82-3.79-10.95-6.59-3.13-2.8-5.6-6.15-7.41-10.04-1.81-3.89-2.72-8.2-2.72-12.92v-54.33c0-4.39.99-8.5,2.96-12.35,1.98-3.84,4.58-7.22,7.82-10.13,3.24-2.91,6.92-5.19,11.03-6.83,4.12-1.65,8.37-2.47,12.76-2.47h74.42c4.28,0,8.48.82,12.6,2.47,4.12,1.65,7.79,3.93,11.03,6.83,3.24,2.91,5.85,6.28,7.82,10.13,1.98,3.84,2.96,7.96,2.96,12.35v54.33ZM1323,315.96c0-1.42-.36-2.8-1.07-4.12-.72-1.32-1.65-2.47-2.8-3.46-1.16-.99-2.47-1.75-3.96-2.31-1.48-.55-2.94-.82-4.37-.82h-74.54c-1.54,0-3.03.28-4.45.82-1.43.55-2.72,1.32-3.88,2.31-1.16.99-2.09,2.14-2.8,3.46-.72,1.32-1.07,2.69-1.07,4.12v54.33c0,7.03,4.07,10.54,12.2,10.54h74.54c8.13,0,12.2-3.51,12.2-10.54v-54.33Z"/>
  </g>
</svg>