<?xml version="1.0" encoding="UTF-8"?>
<svg id="Layer_1" xmlns="http://www.w3.org/2000/svg" viewBox="0 0 2049 675">
  <defs>
    <style>
      .cls-1 {
        fill: #171946;
      }

      .cls-2 {
        fill: #171846;
      }

      .cls-3 {
        fill: #717272;
      }
    </style>
  </defs>
  <g>
    <g>
      <path class="cls-1" d="M1268.49,437.81c-.52,0-1.04-.05-1.56-.15-.51-.11-1.01-.26-1.5-.46-.48-.2-.95-.45-1.38-.74-.44-.29-.85-.62-1.21-.99-.37-.37-.71-.78-1-1.22-.29-.43-.53-.89-.74-1.38-.2-.48-.35-.98-.45-1.49-.11-.52-.16-1.05-.16-1.57s.05-1.04.16-1.56c.1-.51.25-1.01.45-1.5.21-.48.45-.94.74-1.38.29-.44.63-.85,1-1.21.36-.37.77-.71,1.21-1,.43-.29.9-.53,1.38-.73.49-.2.99-.36,1.5-.46,1.03-.21,2.09-.21,3.13,0,.51.1,1.01.26,1.49.46.49.2.95.44,1.38.73.44.29.85.63,1.22,1,.37.36.7.77.99,1.21.29.44.54.9.74,1.38.2.49.35.99.46,1.5.1.52.15,1.04.15,1.56,0,2.11-.85,4.17-2.34,5.66-.37.37-.78.7-1.22.99-.43.29-.9.54-1.38.74-.48.2-.99.35-1.49.46-.52.1-1.05.15-1.57.15Z"/>
      <path class="cls-1" d="M1186.73,466.44c-4.41-.12-7.89-3.79-7.79-8.21h0c.12-4.42,3.79-7.9,8.21-7.79h0c4.41.11,7.9,3.79,7.79,8.2h0c-.11,4.35-3.67,7.8-8,7.8h-.21ZM1201.06,458.26c-.68-4.37,2.31-8.46,6.67-9.14h0c4.37-.68,8.46,2.31,9.14,6.67h0c.68,4.37-2.31,8.46-6.68,9.14h0c-.41.07-.83.1-1.24.1h0c-3.87,0-7.28-2.82-7.89-6.77ZM1163.37,463.71h0c-4.32-.91-7.09-5.15-6.18-9.47h0c.91-4.32,5.15-7.09,9.47-6.18h0c4.32.91,7.09,5.15,6.18,9.47h0c-.79,3.76-4.12,6.35-7.82,6.35h0c-.55,0-1.1-.06-1.66-.17ZM1222.82,454.31c-1.47-4.17.73-8.72,4.89-10.19h0c4.16-1.46,8.73.73,10.18,4.9h0c1.47,4.17-.73,8.74-4.89,10.19h0c-.88.31-1.77.46-2.65.46h0c-3.31,0-6.4-2.07-7.55-5.36ZM1140.89,456.79c-4.08-1.69-6.03-6.36-4.35-10.44h0c1.68-4.08,6.36-6.03,10.43-4.35h0c4.09,1.68,6.04,6.36,4.36,10.43h0c-1.27,3.09-4.26,4.96-7.4,4.96h0c-1.02,0-2.05-.19-3.05-.6ZM1243.49,446.45c-2.2-3.83-.87-8.71,2.96-10.91h0c3.84-2.19,8.71-.86,10.91,2.97h0c2.2,3.83.87,8.71-2.96,10.91h0c-1.26.72-2.62,1.06-3.97,1.06h0c-2.78,0-5.47-1.45-6.95-4.03Z"/>
      <path class="cls-1" d="M1124.36,447.14c-.52,0-1.04-.05-1.56-.15-.51-.1-1.01-.26-1.49-.46-.49-.2-.95-.45-1.39-.73-.43-.3-.84-.63-1.21-1-1.49-1.49-2.35-3.55-2.35-5.66,0-.52.06-1.04.16-1.56.1-.51.26-1.01.46-1.5.2-.48.44-.94.73-1.38.29-.44.63-.84,1-1.21,1.85-1.86,4.62-2.72,7.22-2.19.51.1,1.01.26,1.5.46.48.2.94.44,1.38.73.43.29.84.63,1.21,1,.37.37.71.77,1,1.21.28.44.53.9.73,1.38.2.49.35.99.46,1.5.1.52.15,1.04.15,1.56s-.05,1.05-.15,1.57c-.11.51-.26,1.01-.46,1.49-.2.49-.45.95-.73,1.39-.29.43-.63.84-1,1.21-1.49,1.49-3.55,2.34-5.66,2.34Z"/>
    </g>
    <g>
      <path class="cls-1" d="M1120.55,246.52c-.52,0-1.05-.05-1.57-.15-.5-.11-1.01-.26-1.49-.46-.48-.2-.95-.45-1.38-.74-.44-.29-.85-.62-1.22-.99-.37-.37-.7-.78-.99-1.22-.29-.43-.54-.89-.74-1.38-.2-.48-.35-.98-.45-1.49-.11-.52-.16-1.05-.16-1.57s.05-1.05.16-1.56c.1-.51.25-1.01.45-1.5.2-.48.45-.94.74-1.38s.62-.84.99-1.21c.37-.37.78-.71,1.22-1,.43-.29.9-.53,1.38-.73.48-.2.99-.36,1.49-.46,1.04-.21,2.1-.21,3.13,0,.51.1,1.02.26,1.5.46.48.2.95.44,1.38.73.44.29.85.63,1.21,1,1.49,1.49,2.35,3.55,2.35,5.65,0,.52-.06,1.05-.16,1.57-.1.51-.26,1.01-.46,1.49-.2.49-.44.95-.73,1.38-.29.44-.63.85-1,1.22-.36.37-.77.7-1.21.99-.43.29-.9.54-1.38.74-.48.2-.99.35-1.5.46-.51.1-1.04.15-1.56.15Z"/>
      <path class="cls-1" d="M1305.67,376.38c-4.28-1.12-6.85-5.48-5.74-9.75h0c1.11-4.28,5.48-6.84,9.74-5.73h0c4.28,1.11,6.85,5.47,5.74,9.74h0c-.94,3.6-4.18,5.99-7.73,5.99h0c-.67,0-1.34-.08-2.01-.25ZM1310.76,354.19c-4.41-.3-7.74-4.11-7.45-8.5h0c.29-4.41,4.1-7.75,8.5-7.46h0c4.41.29,7.75,4.1,7.45,8.5h0c-.28,4.23-3.8,7.47-7.97,7.47h0c-.18,0-.36,0-.54,0ZM1302.75,324.44c-.52-4.39,2.61-8.37,7-8.88h0c4.38-.53,8.36,2.6,8.89,6.99h0c.52,4.39-2.61,8.37-7,8.89h0c-.32.04-.64.06-.95.06h0c-4,0-7.45-2.98-7.94-7.05ZM1298.28,303.71h0c-1.34-4.22.99-8.7,5.2-10.04h0c4.21-1.34,8.7,1,10.04,5.21h0c1.33,4.21-1,8.7-5.21,10.03h0c-.8.26-1.62.38-2.42.38h0c-3.39,0-6.54-2.18-7.62-5.58ZM1289.98,284.19c-2.1-3.88-.65-8.73,3.23-10.83h0c3.89-2.1,8.74-.65,10.84,3.23h0c2.1,3.89.65,8.73-3.23,10.84h0c-1.21.65-2.52.96-3.8.96h0c-2.85,0-5.6-1.52-7.05-4.2ZM1278.19,266.55c-2.79-3.43-2.27-8.46,1.16-11.25h0c3.43-2.78,8.47-2.26,11.24,1.16h0c2.79,3.43,2.27,8.47-1.16,11.25h0c-1.48,1.2-3.26,1.79-5.04,1.79h0c-2.32,0-4.63-1.01-6.21-2.95ZM1263.32,251.39c-3.37-2.85-3.8-7.9-.94-11.26h0c2.85-3.38,7.89-3.8,11.26-.95h0c3.38,2.86,3.8,7.9.95,11.27h0c-1.59,1.87-3.85,2.83-6.12,2.83h0c-1.82,0-3.66-.62-5.16-1.89ZM1245.9,239.25c-3.84-2.17-5.2-7.05-3.02-10.89h0c2.18-3.85,7.06-5.2,10.89-3.02h0c3.85,2.17,5.2,7.05,3.03,10.89h0c-1.48,2.6-4.19,4.06-6.97,4.06h0c-1.34,0-2.69-.34-3.94-1.04ZM1133.01,230.58c-1.82-4.03-.03-8.76,4.01-10.58h0c4.02-1.81,8.76-.02,10.56,4.01h0c1.82,4.03.02,8.76-4,10.57h0c-1.07.48-2.19.71-3.28.71h0c-3.05,0-5.97-1.75-7.3-4.71ZM1226.54,230.59c-4.19-1.42-6.43-5.96-5.01-10.13h0c1.41-4.19,5.95-6.43,10.13-5.02h0c4.18,1.42,6.43,5.96,5.01,10.14h0c-1.13,3.33-4.24,5.43-7.57,5.43h0c-.85,0-1.71-.13-2.56-.42ZM1154.02,221.8c-1.02-4.29,1.63-8.6,5.93-9.63h0c4.29-1.03,8.61,1.63,9.63,5.92h0c1.02,4.3-1.63,8.61-5.92,9.64h0c-.63.14-1.25.21-1.87.21h0c-3.62,0-6.9-2.47-7.77-6.14ZM1205.89,225.71c-4.37-.61-7.43-4.65-6.82-9.02h0c.61-4.37,4.65-7.43,9.02-6.82h0c4.37.61,7.43,4.65,6.82,9.02h0c-.56,4-3.98,6.89-7.91,6.89h0c-.37,0-.74-.02-1.12-.07ZM1176.32,217.15c-.21-4.42,3.2-8.17,7.61-8.37h0c4.41-.21,8.16,3.2,8.37,7.61h0c.21,4.41-3.2,8.16-7.61,8.37h0c-.13,0-.25,0-.38,0h0c-4.24,0-7.78-3.34-7.98-7.62Z"/>
      <path class="cls-1" d="M1299.87,398.08c-.52,0-1.04-.05-1.56-.16-.51-.1-1.01-.25-1.5-.45-.48-.2-.94-.45-1.38-.74-.44-.29-.85-.62-1.21-.99-.37-.37-.71-.78-1-1.22-.29-.43-.53-.9-.73-1.38-.2-.48-.36-.99-.46-1.5-.1-.51-.16-1.04-.16-1.56s.06-1.05.16-1.56.26-1.02.46-1.5c.2-.48.44-.95.73-1.38.29-.44.63-.85,1-1.22,1.48-1.49,3.55-2.34,5.65-2.34s4.17.85,5.66,2.34c.37.37.7.78.99,1.22.29.43.54.9.74,1.38.2.48.35.99.46,1.5.1.51.15,1.04.15,1.56s-.05,1.05-.15,1.56c-.11.51-.26,1.02-.46,1.5-.2.48-.45.95-.74,1.38-.29.44-.62.85-.99,1.22-1.49,1.49-3.55,2.34-5.66,2.34Z"/>
    </g>
    <g>
      <path class="cls-1" d="M1075.07,258.45c-.39,0-.78-.04-1.17-.12-.38-.08-.76-.19-1.12-.34-.37-.15-.72-.34-1.04-.56-.33-.21-.64-.46-.91-.74-.28-.28-.53-.58-.75-.91-.21-.33-.4-.68-.55-1.04-.15-.36-.26-.74-.34-1.12-.08-.39-.12-.78-.12-1.17s.04-.79.12-1.18c.08-.38.19-.76.34-1.12.15-.36.34-.71.55-1.03.22-.33.47-.64.75-.92,1.11-1.11,2.66-1.75,4.24-1.75s3.13.64,4.24,1.75c.28.28.53.59.75.92.22.32.4.67.55,1.03.15.36.27.74.34,1.12.08.39.12.79.12,1.18s-.04.78-.12,1.17c-.07.38-.19.76-.34,1.12-.15.36-.33.71-.55,1.04-.22.33-.47.63-.75.91-.27.28-.58.53-.91.74-.32.22-.67.41-1.03.56-.37.15-.74.26-1.13.34-.38.08-.78.12-1.17.12Z"/>
      <path class="cls-1" d="M1187.29,485.43h0c-3.31-.07-5.94-2.81-5.87-6.13h0c.07-3.31,2.82-5.94,6.13-5.86h0c3.32.07,5.94,2.81,5.87,6.13h0c-.07,3.27-2.75,5.87-6,5.87h0s-.09,0-.13,0ZM1203.99,478.98c-.44-3.29,1.86-6.31,5.14-6.75h0c3.29-.44,6.31,1.86,6.75,5.14h0c.45,3.29-1.86,6.31-5.14,6.75h0c-.27.04-.54.06-.81.06h0c-2.96,0-5.54-2.19-5.94-5.2ZM1163.9,483.08h0c-3.26-.6-5.42-3.72-4.83-6.98h0c.59-3.26,3.71-5.42,6.97-4.83h0c3.27.59,5.43,3.71,4.84,6.97h0c-.53,2.9-3.05,4.93-5.9,4.93h0c-.36,0-.71-.03-1.08-.09ZM1226.23,475.13c-.96-3.18.83-6.52,4.01-7.48h0c3.17-.95,6.52.84,7.48,4.01h0c.95,3.18-.84,6.52-4.02,7.48h0c-.57.18-1.16.26-1.73.26h0c-2.58,0-4.96-1.68-5.74-4.27ZM1141.19,477.06c-3.13-1.1-4.77-4.53-3.67-7.65h0c1.1-3.13,4.52-4.77,7.65-3.67h0c3.13,1.1,4.77,4.52,3.67,7.65h0c-.87,2.47-3.19,4.01-5.66,4.01h0c-.66,0-1.33-.11-1.99-.34ZM1247.58,467.82c-1.45-2.99-.21-6.58,2.77-8.02h0c2.98-1.45,6.57-.21,8.01,2.78h0c1.45,2.98.2,6.57-2.78,8.01h0c-.85.41-1.74.61-2.62.61h0c-2.23,0-4.37-1.25-5.4-3.38ZM1119.7,467.52c-2.91-1.58-3.99-5.22-2.41-8.13h0c1.58-2.92,5.22-3.99,8.13-2.41h0c2.92,1.58,4,5.22,2.42,8.13h0c-1.09,2.01-3.15,3.14-5.28,3.14h0c-.97,0-1.95-.23-2.86-.73ZM1267.48,457.21c-1.9-2.71-1.23-6.46,1.48-8.34h0c2.72-1.9,6.46-1.24,8.36,1.48h0c1.89,2.71,1.23,6.45-1.48,8.35h0c-1.05.73-2.25,1.09-3.44,1.09h0c-1.89,0-3.75-.9-4.92-2.57ZM1100,454.73h0c-2.63-2.02-3.13-5.79-1.11-8.42h0c2.02-2.63,5.79-3.12,8.41-1.1h0c2.63,2.02,3.12,5.78,1.1,8.41h0c-1.18,1.54-2.96,2.35-4.76,2.35h0c-1.28,0-2.57-.41-3.65-1.24ZM1285.49,443.61c-2.3-2.38-2.23-6.18.15-8.48h0c2.39-2.3,6.19-2.23,8.49.16h0c2.3,2.38,2.23,6.18-.16,8.48h0c-1.16,1.12-2.66,1.68-4.16,1.68h0c-1.57,0-3.14-.62-4.32-1.84ZM1082.54,439c-2.28-2.41-2.17-6.21.23-8.49h0c2.4-2.28,6.2-2.17,8.47.23h0c2.28,2.4,2.18,6.2-.22,8.47h0c-1.16,1.1-2.65,1.65-4.13,1.65h0c-1.59,0-3.17-.63-4.36-1.87ZM1301.15,427.36c-2.65-1.99-3.17-5.76-1.18-8.39h0c2-2.64,5.76-3.17,8.4-1.17h0c2.64,1.99,3.17,5.75,1.17,8.39h0c-1.18,1.56-2.97,2.38-4.79,2.38h0c-1.26,0-2.53-.39-3.61-1.21ZM1314.08,408.86c-2.92-1.56-4.04-5.19-2.48-8.12h0c1.56-2.92,5.19-4.03,8.1-2.48h0c2.93,1.56,4.04,5.19,2.49,8.12h0c-1.07,2.03-3.15,3.18-5.3,3.18h0c-.95,0-1.91-.23-2.81-.7ZM1323.93,388.54c-3.14-1.07-4.81-4.49-3.73-7.62h0c1.07-3.14,4.48-4.81,7.62-3.73h0c3.13,1.07,4.8,4.48,3.73,7.62h0c-.86,2.49-3.18,4.06-5.68,4.06h0c-.64,0-1.3-.11-1.94-.33ZM1330.44,366.94c-3.26-.56-5.45-3.67-4.89-6.93h0c.56-3.27,3.67-5.46,6.93-4.89h0c3.26.56,5.46,3.66,4.89,6.93h0c-.5,2.92-3.04,4.98-5.9,4.98h0c-.34,0-.68-.03-1.03-.09ZM1333.45,344.58c-3.31-.05-5.96-2.77-5.91-6.09h0c.04-3.31,2.77-5.96,6.08-5.91h0c3.31.04,5.96,2.77,5.91,6.08h0c-.04,3.29-2.72,5.92-5.99,5.92h-.09ZM1326.15,316.94c-.47-3.28,1.81-6.33,5.09-6.8h0c3.28-.47,6.32,1.81,6.79,5.09h0c.47,3.28-1.81,6.32-5.09,6.79h0c-.28.04-.57.07-.86.07h0c-2.93,0-5.5-2.16-5.93-5.15ZM1321.4,295.87c-.98-3.17.78-6.53,3.95-7.51h0c3.16-.99,6.53.78,7.51,3.95h0c.98,3.16-.78,6.52-3.95,7.51h0c-.59.18-1.19.27-1.78.27h0c-2.56,0-4.93-1.65-5.73-4.22ZM1313.38,275.82c-1.47-2.97-.26-6.57,2.71-8.04h0c2.97-1.47,6.57-.26,8.03,2.71h0c1.47,2.97.26,6.57-2.71,8.04h0c-.86.43-1.76.63-2.66.63h0c-2.21,0-4.33-1.23-5.38-3.34ZM1302.28,257.29c-1.92-2.7-1.28-6.44,1.42-8.36h0c2.69-1.93,6.44-1.29,8.36,1.41h0c1.92,2.7,1.29,6.44-1.41,8.35h0c-1.06.75-2.27,1.12-3.47,1.12h0c-1.88,0-3.73-.88-4.9-2.53ZM1288.42,240.73c-2.32-2.37-2.28-6.17.09-8.48h0c2.36-2.32,6.16-2.28,8.48.08h0c2.32,2.37,2.28,6.17-.08,8.48h0c-1.17,1.14-2.69,1.72-4.2,1.72h0c-1.56,0-3.11-.61-4.29-1.8ZM1085.5,239.56c-2.34-2.35-2.34-6.15,0-8.48h0c2.35-2.34,6.15-2.33,8.49.02h0c2.34,2.34,2.33,6.14-.02,8.48h0c-1.17,1.17-2.7,1.75-4.23,1.75h0c-1.54,0-3.08-.59-4.25-1.76ZM1272.13,226.53h0c-2.66-1.98-3.22-5.74-1.24-8.39h0c1.97-2.66,5.73-3.21,8.4-1.24h0c2.66,1.97,3.22,5.73,1.25,8.38h0c-1.18,1.59-2.99,2.43-4.83,2.43h0c-1.24,0-2.49-.39-3.57-1.18ZM1102.06,224.22c-1.94-2.68-1.35-6.43,1.34-8.36h0c2.68-1.95,6.43-1.35,8.37,1.34h0c1.94,2.68,1.34,6.43-1.34,8.37h0c-1.07.77-2.3,1.14-3.52,1.14h0c-1.85,0-3.69-.86-4.86-2.49ZM1253.82,215.06c-2.94-1.53-4.08-5.16-2.55-8.09h0c1.53-2.94,5.16-4.08,8.1-2.55h0c2.93,1.53,4.08,5.15,2.54,8.09h0c-1.07,2.06-3.16,3.23-5.32,3.23h0c-.94,0-1.89-.22-2.77-.68ZM1120.82,211.68c-1.5-2.96-.31-6.57,2.64-8.07h0c2.96-1.49,6.57-.31,8.05,2.65h0c1.5,2.95.32,6.56-2.64,8.06h0c-.87.44-1.79.65-2.7.65h0c-2.19,0-4.3-1.2-5.36-3.29ZM1233.93,206.62c-3.15-1.05-4.85-4.44-3.8-7.59h0c1.05-3.14,4.45-4.84,7.59-3.79h0c3.14,1.04,4.84,4.44,3.79,7.58h0c-.83,2.52-3.17,4.11-5.69,4.11h0c-.63,0-1.26-.1-1.89-.31ZM1141.32,202.24c-1.01-3.16.73-6.54,3.89-7.55h0c3.15-1.01,6.53.73,7.54,3.89h0c1.01,3.15-.73,6.53-3.89,7.54h0c-.6.2-1.22.29-1.83.29h0c-2.54,0-4.89-1.63-5.71-4.17ZM1212.97,201.44c-3.27-.53-5.49-3.62-4.95-6.89h0c.54-3.27,3.62-5.48,6.89-4.95h0c3.27.54,5.49,3.62,4.95,6.89h0c-.48,2.95-3.03,5.03-5.91,5.03h0c-.32,0-.65-.02-.98-.08ZM1163.06,196.17c-.5-3.27,1.75-6.33,5.03-6.83h0c3.27-.5,6.33,1.75,6.83,5.03h0c.5,3.27-1.75,6.33-5.03,6.83h0c-.3.05-.61.07-.91.07h0c-2.91,0-5.47-2.13-5.92-5.1ZM1191.44,199.64c-3.31-.02-5.98-2.72-5.97-6.03h0c.02-3.32,2.73-5.99,6.04-5.97h0c3.31.02,5.98,2.73,5.96,6.04h0c-.02,3.3-2.7,5.96-6,5.96h-.03Z"/>
      <path class="cls-1" d="M1072.6,423.15c-.39,0-.79-.04-1.18-.12-.38-.08-.76-.19-1.12-.34-.36-.15-.71-.34-1.04-.55-.32-.22-.63-.47-.91-.75-1.11-1.11-1.76-2.66-1.76-4.24s.65-3.13,1.76-4.24c1.39-1.39,3.47-2.04,5.42-1.64.38.07.76.19,1.12.34.36.15.71.33,1.04.55.33.22.63.47.91.75,1.12,1.11,1.76,2.66,1.76,4.24s-.64,3.12-1.76,4.24c-.28.28-.58.53-.91.75-.33.21-.68.4-1.04.55-.36.15-.74.26-1.12.34-.39.08-.78.12-1.17.12Z"/>
    </g>
    <g>
      <path class="cls-1" d="M1036.99,279.73c-.29,0-.59-.03-.88-.09-.28-.05-.57-.14-.84-.25s-.53-.25-.78-.42c-.24-.16-.47-.35-.68-.55-.21-.21-.4-.44-.56-.69-.16-.24-.3-.5-.41-.78-.11-.27-.2-.55-.26-.84-.06-.29-.09-.58-.09-.88s.03-.59.09-.88c.06-.28.15-.57.26-.84.11-.27.25-.53.41-.78.16-.24.35-.47.56-.68s.44-.4.68-.56c.25-.16.51-.3.78-.41s.56-.2.84-.26c1.46-.29,3.02.19,4.06,1.23.21.21.4.44.56.68.17.25.31.51.42.78s.2.56.26.84c.05.29.08.59.08.88s-.03.59-.08.88c-.06.29-.15.57-.26.84-.11.28-.25.54-.42.78-.16.25-.35.48-.56.69s-.43.39-.68.55c-.24.17-.5.3-.78.42-.27.11-.55.2-.84.25-.29.06-.58.09-.88.09Z"/>
      <path class="cls-1" d="M1044.92,258.4c-2.15-1.25-2.88-4.01-1.63-6.16h0c1.25-2.15,4.01-2.87,6.16-1.62h0c2.14,1.25,2.87,4,1.62,6.15h0c-.83,1.44-2.34,2.24-3.89,2.24h0c-.77,0-1.55-.2-2.26-.61ZM1057.38,238.94c-1.96-1.54-2.3-4.37-.76-6.32h0c1.53-1.96,4.36-2.3,6.32-.76h0c1.95,1.53,2.29,4.36.76,6.31h0c-.89,1.14-2.21,1.73-3.55,1.73h0c-.97,0-1.95-.32-2.77-.96ZM1072.39,221.38c-1.72-1.78-1.67-4.63.12-6.36h0c1.79-1.72,4.64-1.67,6.36.12h0c1.73,1.79,1.67,4.63-.11,6.36h0c-.88.84-2,1.26-3.13,1.26h0c-1.18,0-2.35-.46-3.24-1.38Z"/>
      <path class="cls-1" d="M1093.33,207.91c-1.19,0-2.35-.48-3.18-1.32-.84-.84-1.32-2-1.32-3.18s.48-2.34,1.32-3.18c.83-.84,1.99-1.32,3.18-1.32s2.34.48,3.18,1.32c.84.84,1.32,2,1.32,3.18s-.48,2.34-1.32,3.18c-.84.84-1.99,1.32-3.18,1.32Z"/>
    </g>
    <g>
      <path class="cls-1" d="M1133.91,186.24c-.29,0-.59-.03-.88-.08-.28-.06-.57-.15-.84-.26-.27-.11-.53-.25-.78-.42-.24-.16-.47-.35-.68-.55-.84-.84-1.32-2-1.32-3.19s.48-2.34,1.32-3.18c.21-.21.44-.39.68-.56.25-.16.51-.3.78-.41.27-.11.56-.2.84-.26.58-.11,1.18-.12,1.76,0,.29.06.57.15.84.26.27.11.54.25.78.41.25.17.48.35.68.56.84.84,1.32,2,1.32,3.18,0,.3-.03.59-.09.88-.05.29-.14.57-.25.84-.12.28-.26.54-.42.78-.16.25-.35.48-.56.69-.83.83-1.99,1.31-3.18,1.31Z"/>
      <path class="cls-1" d="M1197.87,504.38c-.17-2.47,1.71-4.62,4.19-4.78h0c2.48-.17,4.62,1.7,4.79,4.19h0c.16,2.48-1.72,4.62-4.2,4.79h-.3c-2.35,0-4.33-1.82-4.48-4.2ZM1178.3,508.47c-2.48-.18-4.34-2.34-4.16-4.82h0c.18-2.48,2.35-4.34,4.82-4.15h0c2.48.18,4.34,2.34,4.16,4.82h0c-.18,2.36-2.15,4.17-4.49,4.17h0c-.11,0-.22,0-.33-.02ZM1221.46,501.76c-.52-2.43,1.04-4.82,3.47-5.33h0c2.43-.52,4.82,1.03,5.33,3.46h0c.52,2.43-1.03,4.82-3.46,5.34h0c-.32.06-.63.1-.94.1h0c-2.08,0-3.95-1.45-4.4-3.57ZM1154.18,504.95h0c-2.43-.53-3.96-2.94-3.43-5.36h0c.54-2.43,2.94-3.96,5.37-3.43h0c2.43.54,3.97,2.94,3.43,5.36h0c-.46,2.1-2.33,3.54-4.39,3.54h0c-.32,0-.65-.04-.97-.11ZM1244.44,495.8c-.86-2.34.33-4.92,2.67-5.78h0c2.33-.86,4.91.34,5.77,2.67h0c.86,2.33-.33,4.91-2.66,5.77h0c-.52.19-1.04.28-1.56.28h0c-1.83,0-3.55-1.12-4.22-2.94ZM1130.81,498c-2.33-.88-3.5-3.47-2.63-5.8h0c.88-2.32,3.48-3.5,5.8-2.62h0c2.33.88,3.5,3.47,2.62,5.8h0c-.68,1.8-2.39,2.91-4.21,2.91h0c-.53,0-1.06-.09-1.58-.29ZM1266.3,486.62c-1.18-2.19-.37-4.92,1.81-6.1h0c2.19-1.19,4.92-.38,6.1,1.81h0c1.19,2.18.38,4.92-1.81,6.1h0c-.68.37-1.41.54-2.14.54h0c-1.6,0-3.15-.85-3.96-2.35ZM1108.68,487.79c-2.18-1.2-2.97-3.94-1.77-6.12h0c1.21-2.17,3.94-2.96,6.12-1.76h0c2.17,1.2,2.96,3.94,1.76,6.11h0c-.82,1.49-2.35,2.33-3.94,2.33h0c-.74,0-1.48-.18-2.17-.56ZM1286.65,474.4c-1.48-1.99-1.07-4.81.92-6.29h0c2-1.48,4.82-1.07,6.3.93h0c1.48,1.99,1.07,4.81-.93,6.29h0c-.8.6-1.74.89-2.68.89h0c-1.37,0-2.73-.63-3.61-1.82ZM1088.23,474.52c-1.98-1.5-2.38-4.32-.88-6.3h0c1.5-1.98,4.32-2.38,6.31-.88h0c1.98,1.5,2.37,4.32.87,6.3h0c-.88,1.17-2.23,1.79-3.59,1.79h0c-.95,0-1.9-.3-2.71-.91ZM1305.06,459.42c-1.75-1.77-1.74-4.62.02-6.37h.01c1.76-1.75,4.61-1.73,6.36.03h0c1.75,1.77,1.73,4.61-.03,6.37h0c-.88.86-2.02,1.3-3.17,1.3h0c-1.15,0-2.31-.45-3.19-1.33ZM1069.87,458.48h0c-1.75-1.76-1.74-4.61.02-6.36h0c1.77-1.75,4.62-1.74,6.37.02h0c1.75,1.76,1.74,4.61-.02,6.36h0c-.88.88-2.03,1.31-3.17,1.31h0c-1.16,0-2.32-.44-3.2-1.33ZM1321.17,441.98c-1.98-1.5-2.37-4.32-.87-6.3h0c1.5-1.99,4.32-2.38,6.3-.88h0c1.98,1.5,2.37,4.32.87,6.31h0c-.88,1.16-2.23,1.78-3.59,1.78h0c-.95,0-1.9-.3-2.71-.91ZM1053.97,440.03c-1.49-2-1.07-4.82.92-6.3h0c1.99-1.49,4.81-1.07,6.3.92h0c1.48,1.99,1.07,4.81-.93,6.3h0c-.8.6-1.74.89-2.68.89h0c-1.37,0-2.73-.63-3.61-1.81ZM1334.65,422.44c-2.18-1.2-2.97-3.94-1.76-6.12h0c1.2-2.17,3.94-2.96,6.11-1.75h0c2.18,1.2,2.97,3.94,1.76,6.11h0c-.82,1.48-2.36,2.32-3.94,2.32h0c-.74,0-1.48-.18-2.17-.56ZM1040.84,419.49c-1.18-2.19-.38-4.92,1.81-6.1h0c2.18-1.19,4.92-.38,6.1,1.8h0c1.19,2.19.38,4.92-1.81,6.11h0c-.68.37-1.41.54-2.14.54h0c-1.6,0-3.14-.85-3.96-2.35ZM1345.21,401.16c-2.32-.88-3.49-3.47-2.61-5.8h0c.88-2.32,3.47-3.49,5.8-2.61h0c2.33.88,3.5,3.47,2.62,5.8h0c-.69,1.8-2.4,2.91-4.21,2.91h0c-.53,0-1.07-.1-1.6-.3ZM1352.62,378.59c-2.43-.54-3.96-2.94-3.42-5.37h0c.53-2.42,2.94-3.95,5.36-3.42h0c2.43.54,3.96,2.94,3.42,5.37h0c-.46,2.1-2.32,3.53-4.39,3.53h0c-.32,0-.65-.04-.97-.11ZM1356.72,355.21c-2.48-.19-4.34-2.35-4.15-4.83h0c.18-2.48,2.34-4.33,4.82-4.15h0c2.48.19,4.34,2.35,4.15,4.83h0c-.18,2.36-2.15,4.16-4.48,4.16h0c-.12,0-.23,0-.34,0ZM1352.68,327.29c-.17-2.48,1.71-4.62,4.19-4.78h0c2.48-.17,4.62,1.71,4.79,4.19h0c.16,2.48-1.72,4.63-4.2,4.79h0c-.1,0-.2,0-.3,0h0c-2.35,0-4.33-1.83-4.48-4.21ZM1349.54,304.42h0c-.51-2.43,1.04-4.82,3.47-5.34h0c2.43-.51,4.82,1.05,5.34,3.48h0c.51,2.43-1.04,4.82-3.48,5.33h0c-.31.07-.62.1-.93.1h0c-2.08,0-3.95-1.45-4.4-3.57ZM1343.16,282.24c-.86-2.33.34-4.92,2.67-5.77h0c2.33-.86,4.92.34,5.78,2.67h0c.86,2.33-.34,4.92-2.67,5.77h0c-.51.19-1.03.28-1.55.28h0c-1.83,0-3.55-1.13-4.22-2.95ZM1333.68,261.21h0c-1.18-2.18-.37-4.91,1.82-6.09h0c2.19-1.19,4.91-.37,6.1,1.82h0c1.18,2.18.36,4.91-1.82,6.1h0c-.68.36-1.42.54-2.14.54h0c-1.6,0-3.15-.86-3.96-2.37ZM1321.28,241.74c-1.48-2-1.06-4.82.94-6.29h0c1.99-1.48,4.81-1.07,6.29.93h0c1.48,2,1.06,4.82-.93,6.3h0c-.81.59-1.75.88-2.68.88h0c-1.38,0-2.74-.63-3.62-1.82ZM1306.25,224.21c-1.75-1.76-1.73-4.61.04-6.36h0c1.76-1.75,4.61-1.73,6.36.04h0c1.75,1.76,1.73,4.61-.03,6.36h0c-.88.87-2.03,1.3-3.17,1.3h0c-1.16,0-2.32-.45-3.2-1.34ZM1288.89,208.99c-1.98-1.51-2.37-4.33-.87-6.31h0c1.51-1.98,4.33-2.37,6.31-.86h0c1.98,1.5,2.37,4.32.87,6.3h0c-.89,1.17-2.23,1.78-3.59,1.78h0c-.95,0-1.91-.3-2.72-.91ZM1269.54,196.37h0c-2.17-1.2-2.96-3.94-1.75-6.11h0c1.21-2.18,3.94-2.96,6.12-1.76h0c2.17,1.21,2.96,3.95,1.75,6.12h0c-.82,1.48-2.36,2.32-3.94,2.32h0c-.74,0-1.49-.18-2.18-.57ZM1248.6,186.64c-2.32-.88-3.49-3.48-2.61-5.8h0c.89-2.33,3.48-3.5,5.81-2.61h0c2.32.88,3.49,3.48,2.61,5.8h0c-.69,1.8-2.4,2.9-4.21,2.9h0c-.53,0-1.07-.09-1.6-.29ZM1226.47,180.02c-2.43-.54-3.95-2.94-3.41-5.37h0c.53-2.43,2.94-3.95,5.37-3.42h0c2.42.55,3.95,2.95,3.41,5.38h0c-.47,2.09-2.33,3.52-4.39,3.52h0c-.32,0-.65-.04-.98-.11ZM1152.33,176.14c-.52-2.43,1.04-4.82,3.47-5.33h.01c2.43-.51,4.81,1.05,5.32,3.48h0c.51,2.43-1.04,4.81-3.48,5.33h0c-.31.06-.62.09-.93.09h0c-2.08,0-3.95-1.45-4.39-3.57ZM1203.63,176.63c-2.48-.19-4.33-2.36-4.14-4.83h0c.19-2.48,2.35-4.34,4.83-4.15h0c2.47.19,4.33,2.35,4.14,4.83h0c-.18,2.36-2.15,4.16-4.48,4.16h0c-.12,0-.23,0-.35,0ZM1175.76,172.29c-.16-2.48,1.72-4.62,4.2-4.78h0c2.48-.16,4.62,1.72,4.78,4.2h0c.16,2.48-1.72,4.62-4.2,4.78h0c-.1,0-.2,0-.3,0h0c-2.35,0-4.33-1.83-4.48-4.21Z"/>
      <path class="cls-1" d="M1034.91,400.01c-.29,0-.59-.03-.88-.09-.29-.06-.57-.15-.84-.26-.27-.11-.53-.25-.78-.41-.24-.17-.47-.35-.68-.56s-.4-.44-.56-.69c-.16-.24-.3-.5-.42-.77-.11-.27-.2-.56-.25-.85-.06-.29-.09-.58-.09-.87s.03-.59.09-.88c.05-.29.14-.57.25-.85.12-.27.26-.53.42-.77.16-.25.35-.48.56-.69.21-.2.44-.39.68-.56.25-.16.51-.3.78-.41.27-.11.55-.2.84-.26.58-.11,1.18-.11,1.76,0,.29.06.57.15.84.26.27.11.53.25.78.41.24.17.47.36.68.56.21.21.4.44.56.69.16.24.3.5.42.77.11.28.19.56.25.85.06.29.09.58.09.88,0,1.18-.48,2.34-1.32,3.18-.21.21-.44.39-.68.56-.25.16-.51.3-.78.41-.27.11-.55.2-.84.26-.29.06-.59.09-.88.09Z"/>
    </g>
    <g>
      <path class="cls-1" d="M1020.22,260.2c-.66,0-1.3-.27-1.77-.73-.12-.12-.22-.25-.31-.38-.09-.14-.17-.28-.23-.43-.06-.15-.11-.31-.14-.47-.04-.16-.05-.33-.05-.49,0-.66.27-1.3.73-1.77.58-.58,1.44-.84,2.26-.68.16.03.31.08.46.14.15.06.3.14.43.23.14.09.27.2.38.31.47.47.74,1.11.74,1.77,0,.16-.02.33-.05.49-.03.16-.08.32-.14.47-.07.15-.14.29-.23.43-.09.13-.2.26-.32.38-.11.11-.24.22-.38.31-.13.09-.28.17-.43.23-.15.06-.3.11-.46.14-.17.03-.33.05-.49.05Z"/>
      <path class="cls-1" d="M1332.67,461.41c-1.05-.89-1.18-2.47-.28-3.52h0c.9-1.05,2.48-1.17,3.53-.27h0c1.05.89,1.17,2.47.27,3.52h0c-.49.58-1.19.87-1.9.87h0c-.57,0-1.15-.19-1.62-.6ZM1341.15,451.04c-1.11-.82-1.34-2.38-.52-3.49h0c.82-1.11,2.39-1.35,3.5-.52h0c1.1.82,1.34,2.38.52,3.49h0c-.49.67-1.25,1.02-2.01,1.02h0c-.52,0-1.04-.16-1.49-.5ZM1348.89,440.09c-1.17-.74-1.51-2.29-.77-3.45h0c.74-1.16,2.29-1.51,3.45-.77h0c1.17.74,1.51,2.29.77,3.45h0c-.48.75-1.28,1.16-2.11,1.16h0c-.46,0-.92-.12-1.34-.39ZM1355.82,428.62c-1.21-.65-1.67-2.17-1.01-3.38h0c.65-1.22,2.17-1.67,3.39-1.02h0c1.21.66,1.66,2.18,1.01,3.39h0c-.45.84-1.31,1.31-2.2,1.31h0c-.41,0-.81-.09-1.19-.3ZM1361.93,416.69c-1.26-.57-1.82-2.05-1.25-3.3h0c.56-1.26,2.04-1.82,3.3-1.26h0c1.26.57,1.82,2.05,1.25,3.31h0c-.42.93-1.33,1.47-2.29,1.47h0c-.34,0-.69-.07-1.02-.22ZM1367.17,404.35c-1.3-.47-1.96-1.91-1.49-3.21h0c.48-1.29,1.91-1.96,3.21-1.48h0c1.29.47,1.96,1.91,1.48,3.21h0c-.37,1.01-1.32,1.64-2.34,1.63h0c-.29,0-.58-.04-.86-.15ZM1371.5,391.66c-1.33-.38-2.1-1.77-1.71-3.1h0c.38-1.32,1.76-2.09,3.09-1.71h0c1.33.38,2.09,1.77,1.71,3.1h0c-.32,1.09-1.32,1.8-2.4,1.8h0c-.23,0-.46-.03-.69-.09ZM1374.92,378.69c-1.35-.28-2.22-1.61-1.93-2.96h0c.29-1.35,1.61-2.21,2.96-1.93h0c1.35.29,2.21,1.62,1.93,2.97h0c-.25,1.17-1.29,1.98-2.44,1.98h0c-.18,0-.35-.02-.52-.06ZM1377.4,365.52c-1.37-.19-2.32-1.45-2.14-2.82h0c.19-1.37,1.45-2.32,2.82-2.13h0c1.37.18,2.33,1.45,2.14,2.81h0c-.18,1.26-1.25,2.16-2.48,2.16h0c-.11,0-.23,0-.34-.02ZM1378.94,352.2c-1.38-.09-2.42-1.29-2.33-2.66h0c.09-1.38,1.28-2.42,2.66-2.33h0c1.37.09,2.42,1.28,2.33,2.66h0c-.09,1.32-1.19,2.33-2.5,2.33h-.16ZM1377.02,336.31c0-1.38,1.11-2.5,2.49-2.51h0c1.38,0,2.5,1.11,2.51,2.49h0c0,1.38-1.11,2.51-2.49,2.51h0c-1.38,0-2.5-1.11-2.5-2.49ZM1376.5,323.09h0c-.1-1.38.93-2.58,2.31-2.68h0c1.38-.1,2.58.93,2.68,2.31h0c.1,1.38-.93,2.57-2.31,2.68h-.19c-1.29,0-2.39-1-2.49-2.31ZM1375.06,309.95c-.2-1.36.74-2.63,2.11-2.83h0c1.36-.2,2.63.74,2.83,2.11h0c.2,1.36-.74,2.63-2.11,2.83h0c-.12.02-.24.03-.36.03h0c-1.22,0-2.29-.9-2.47-2.14ZM1372.68,296.95h0c-.3-1.35.56-2.68,1.9-2.98h0c1.35-.29,2.69.56,2.98,1.91h0c.3,1.35-.55,2.68-1.9,2.97h0c-.18.04-.36.06-.54.06h0c-1.15,0-2.18-.79-2.44-1.96ZM1369.38,284.15h0c-.39-1.32.36-2.71,1.68-3.1h0c1.33-.4,2.72.36,3.11,1.68h0c.39,1.33-.36,2.72-1.68,3.11h0c-.24.07-.48.1-.72.1h0c-1.07,0-2.07-.7-2.39-1.79ZM1365.18,271.62c-.49-1.3.16-2.74,1.46-3.22h0c1.29-.49,2.73.16,3.22,1.46h0c.48,1.29-.17,2.73-1.46,3.22h0c-.29.1-.59.16-.88.16h0c-1.01,0-1.96-.62-2.34-1.62ZM1360.09,259.43c-.58-1.25-.03-2.73,1.23-3.31h0c1.25-.58,2.73-.03,3.31,1.22h0c.58,1.26.03,2.74-1.22,3.32h0c-.34.16-.7.23-1.05.23h0c-.95,0-1.85-.54-2.27-1.46ZM1354.14,247.64c-.67-1.21-.22-2.73.99-3.39h0c1.21-.67,2.73-.23,3.39.99h0c.66,1.2.22,2.72-.99,3.39h0c-.38.21-.79.31-1.2.31h0c-.88,0-1.74-.47-2.19-1.3ZM1025.09,247.95c-1.21-.67-1.64-2.19-.97-3.4h0c.67-1.21,2.19-1.65,3.4-.97h0c1.2.67,1.64,2.19.97,3.39h0c-.46.83-1.31,1.29-2.19,1.29h0c-.41,0-.82-.1-1.21-.31ZM1347.37,236.29c-.75-1.16-.41-2.71.75-3.45h0c1.15-.75,2.7-.42,3.45.74h0c.75,1.16.42,2.71-.74,3.45h0c-.42.28-.89.41-1.36.41h0c-.82,0-1.62-.41-2.1-1.15ZM1031.85,236.37c-1.16-.76-1.48-2.31-.73-3.46h0c.75-1.16,2.3-1.48,3.46-.73h0c1.16.76,1.48,2.3.73,3.46h0c-.48.74-1.28,1.13-2.1,1.13h0c-.47,0-.94-.13-1.36-.4ZM1339.81,225.46c-.83-1.11-.61-2.67.49-3.5h0c1.1-.83,2.67-.61,3.5.49h0c.83,1.11.61,2.67-.49,3.5h0c-.45.34-.98.51-1.5.51h0c-.76,0-1.51-.35-2-1ZM1039.42,225.31c-1.1-.83-1.31-2.4-.48-3.5h0c.84-1.1,2.4-1.32,3.5-.48h0c1.11.83,1.32,2.4.49,3.5h0c-.5.65-1.24.99-2,.99h0c-.52,0-1.05-.17-1.51-.51ZM1331.5,215.18c-.91-1.04-.8-2.62.24-3.53h0c1.05-.9,2.62-.79,3.53.25h0c.91,1.05.8,2.62-.24,3.53h0c-.48.41-1.06.61-1.65.61h0c-.69,0-1.39-.29-1.88-.86ZM1047.75,214.82c-1.04-.91-1.14-2.49-.23-3.53h0c.91-1.04,2.49-1.14,3.53-.23h0c1.04.91,1.14,2.49.23,3.53h0c-.49.56-1.19.85-1.88.85h0c-.59,0-1.17-.2-1.65-.62ZM1322.47,205.51c-.98-.98-.98-2.56,0-3.54h0c.98-.97,2.56-.98,3.54,0h0c.97.98.97,2.56,0,3.54h0c-.49.49-1.13.73-1.77.73h0c-.64,0-1.28-.24-1.77-.73ZM1056.81,204.93c-.97-.98-.96-2.56.02-3.53h0c.98-.97,2.56-.97,3.54.02h0c.97.98.96,2.56-.02,3.53h0c-.49.48-1.12.72-1.76.72h0c-.64,0-1.29-.24-1.78-.74ZM1312.8,196.51c-1.05-.91-1.16-2.49-.26-3.53h0c.91-1.04,2.48-1.15,3.53-.25h0c1.04.9,1.15,2.48.25,3.52h0c-.49.58-1.19.87-1.89.87h0c-.58,0-1.16-.2-1.63-.61ZM1066.54,195.72c-.9-1.05-.78-2.62.27-3.52h0c1.04-.9,2.62-.78,3.52.27h0c.9,1.04.78,2.62-.27,3.52h0c-.47.4-1.05.6-1.62.6h0c-.71,0-1.41-.29-1.9-.87ZM1302.49,188.2c-1.1-.83-1.33-2.39-.5-3.5h0c.83-1.1,2.4-1.33,3.5-.5h0c1.11.83,1.33,2.39.5,3.5h0c-.49.65-1.24,1-2,1h0c-.52,0-1.05-.16-1.5-.5ZM1076.9,187.21c-.82-1.11-.59-2.67.52-3.5h0c1.11-.82,2.67-.59,3.5.52h0c.82,1.11.59,2.68-.52,3.5h0c-.45.33-.97.49-1.49.49h0c-.76,0-1.52-.35-2.01-1.01ZM1291.64,180.65c-1.17-.74-1.5-2.29-.75-3.45h0c.75-1.16,2.29-1.5,3.45-.75h0c1.16.75,1.5,2.3.75,3.46h0c-.48.74-1.28,1.14-2.1,1.14h0c-.47,0-.94-.13-1.35-.4ZM1087.83,179.47c-.74-1.17-.4-2.71.76-3.45h0c1.17-.75,2.71-.41,3.46.76h0c.74,1.16.4,2.71-.77,3.45h0c-.41.27-.88.39-1.34.39h0c-.82,0-1.63-.4-2.11-1.15ZM1280.27,173.89c-1.21-.66-1.66-2.18-.99-3.39h0c.66-1.22,2.18-1.66,3.39-1h0c1.21.67,1.65,2.18.99,3.4h0c-.45.83-1.31,1.3-2.19,1.3h0c-.41,0-.82-.1-1.2-.31ZM1099.28,172.51c-.66-1.21-.2-2.73,1.01-3.39h0c1.21-.66,2.73-.21,3.39,1.01h0c.66,1.21.21,2.73-1.01,3.39h0c-.38.2-.78.3-1.19.3h0c-.89,0-1.74-.48-2.2-1.31ZM1268.44,167.95c-1.26-.58-1.81-2.06-1.24-3.31h0c.58-1.26,2.06-1.81,3.32-1.24h0c1.25.58,1.81,2.06,1.23,3.32h0c-.42.91-1.33,1.46-2.27,1.46h0c-.35,0-.71-.08-1.04-.23ZM1111.21,166.39c-.57-1.26-.01-2.74,1.24-3.31h0c1.26-.57,2.74,0,3.31,1.24h0c.57,1.26.02,2.74-1.24,3.31h0c-.34.15-.69.23-1.03.23h0c-.95,0-1.86-.55-2.28-1.47ZM1256.22,162.88h0c-1.3-.48-1.95-1.92-1.47-3.22h0c.49-1.29,1.93-1.95,3.22-1.46h0c1.29.48,1.95,1.92,1.46,3.21h0c-.37,1.01-1.32,1.63-2.34,1.63h0c-.29,0-.58-.05-.87-.16ZM1123.53,161.14c-.48-1.3.19-2.73,1.48-3.21h0c1.3-.48,2.73.18,3.21,1.48h0c.48,1.29-.18,2.73-1.48,3.21h0c-.28.11-.57.16-.86.16h0c-1.02,0-1.98-.63-2.35-1.64ZM1243.68,158.7c-1.32-.4-2.08-1.78-1.69-3.11h0c.39-1.32,1.78-2.08,3.1-1.69h0c1.32.39,2.08,1.78,1.7,3.1h0c-.33,1.09-1.32,1.8-2.4,1.8h0c-.24,0-.47-.04-.71-.1ZM1136.2,156.78c-.39-1.33.38-2.71,1.71-3.1h0c1.32-.38,2.71.38,3.09,1.71h0c.39,1.32-.38,2.71-1.7,3.1h0c-.24.06-.47.09-.7.09h0c-1.09,0-2.08-.71-2.4-1.8ZM1230.88,155.42h0c-1.35-.29-2.21-1.63-1.92-2.97h0c.3-1.35,1.63-2.21,2.98-1.92h0c1.35.3,2.2,1.63,1.91,2.98h0c-.25,1.17-1.29,1.97-2.44,1.97h0c-.18,0-.36-.02-.53-.06ZM1149.15,153.34c-.29-1.35.57-2.68,1.92-2.97h0c1.35-.29,2.68.58,2.97,1.92h0c.29,1.36-.57,2.68-1.92,2.97h0c-.18.04-.35.06-.53.06h0c-1.15,0-2.19-.81-2.44-1.98ZM1217.86,153.07c-1.37-.2-2.32-1.46-2.12-2.83h0c.2-1.37,1.47-2.32,2.83-2.12h0c1.37.2,2.32,1.46,2.12,2.83h0c-.18,1.25-1.25,2.14-2.47,2.14h0c-.12,0-.24,0-.36-.02ZM1162.32,150.83c-.19-1.36.76-2.63,2.13-2.82h0c1.37-.19,2.63.76,2.82,2.13h0c.19,1.37-.76,2.63-2.13,2.82h0c-.12.02-.24.03-.35.03h0c-1.23,0-2.3-.91-2.48-2.16ZM1204.72,151.65c-1.38-.1-2.41-1.3-2.31-2.67h0c.1-1.38,1.29-2.42,2.67-2.32h0c1.38.1,2.41,1.3,2.31,2.67h0c-.09,1.32-1.19,2.33-2.49,2.33h0c-.06,0-.12-.01-.18-.01ZM1175.63,149.28c-.1-1.38.95-2.57,2.32-2.66h0c1.38-.1,2.57.94,2.67,2.32h0c.09,1.38-.95,2.57-2.32,2.67h-.18c-1.3,0-2.4-1.01-2.49-2.33ZM1191.51,151.16h0c-1.38,0-2.5-1.12-2.49-2.51h0c0-1.38,1.12-2.49,2.5-2.49h0c1.38,0,2.5,1.13,2.5,2.51h0c0,1.37-1.13,2.49-2.51,2.49h0Z"/>
      <path class="cls-1" d="M1325.12,471.98c-.66,0-1.3-.27-1.76-.73s-.74-1.11-.74-1.77c0-.16.02-.32.05-.49.03-.16.08-.31.14-.46.07-.15.14-.3.23-.44.09-.13.2-.26.31-.38.58-.58,1.45-.84,2.26-.68.16.03.32.08.47.14.15.07.29.14.43.23.14.09.27.2.38.31.12.12.22.25.31.38.09.14.17.29.23.44.06.15.11.3.14.46.04.17.05.33.05.49,0,.66-.26,1.31-.73,1.77-.47.46-1.11.73-1.77.73Z"/>
    </g>
    <g>
      <path class="cls-1" d="M1297.24,496.23c-.66,0-1.3-.26-1.76-.73-.47-.46-.74-1.1-.74-1.76,0-.17.02-.33.05-.49s.08-.32.14-.47c.07-.15.14-.3.23-.43.09-.14.2-.27.31-.38.12-.12.25-.22.38-.31.14-.09.28-.17.44-.23.15-.06.3-.11.46-.14.81-.17,1.68.1,2.26.68.12.11.22.24.31.38.09.13.17.28.23.43.06.15.11.31.14.47.04.16.05.32.05.49,0,.66-.26,1.3-.73,1.76-.12.12-.24.22-.38.32-.14.08-.28.16-.43.22-.15.07-.31.11-.47.15-.16.03-.32.04-.49.04Z"/>
      <path class="cls-1" d="M1195.28,526.41c-.05-1.38,1.03-2.54,2.41-2.58h0c1.38-.05,2.54,1.03,2.59,2.41h0c.05,1.38-1.03,2.53-2.41,2.58h0s-.06,0-.09,0h0c-1.34,0-2.45-1.07-2.5-2.42ZM1184.43,528.82c-1.38-.04-2.46-1.2-2.41-2.58h0c.05-1.38,1.2-2.46,2.58-2.41h0c1.38.04,2.46,1.2,2.41,2.58h0c-.04,1.35-1.15,2.42-2.49,2.42h0s-.06,0-.09,0ZM1171.04,527.9c-1.38-.15-2.38-1.38-2.23-2.75h0c.14-1.37,1.37-2.37,2.74-2.23h0c1.38.14,2.37,1.37,2.23,2.75h0c-.13,1.28-1.22,2.24-2.49,2.24h0c-.08,0-.17,0-.25,0ZM1208.52,525.66c-.15-1.37.85-2.6,2.22-2.74h0c1.37-.15,2.6.85,2.74,2.22h0c.14,1.38-.85,2.61-2.23,2.75h0c-.08,0-.17,0-.26,0h0c-1.26,0-2.35-.95-2.48-2.24ZM1157.73,526.03c-1.36-.24-2.26-1.54-2.02-2.9h0c.24-1.36,1.53-2.27,2.89-2.03h0c1.36.24,2.27,1.54,2.03,2.9h0c-.21,1.21-1.27,2.06-2.46,2.06h0c-.14,0-.29-.01-.44-.03ZM1221.67,524c-.25-1.36.66-2.66,2.02-2.89h0c1.36-.25,2.66.66,2.9,2.02h0c.24,1.36-.67,2.66-2.03,2.9h0c-.14.02-.29.04-.43.04h0c-1.2,0-2.25-.86-2.46-2.07ZM1144.6,523.23c-1.34-.33-2.16-1.69-1.82-3.03h0c.33-1.34,1.69-2.15,3.03-1.82h0c1.34.34,2.16,1.7,1.82,3.04h0c-.29,1.13-1.31,1.89-2.43,1.89h0c-.2,0-.4-.03-.6-.08ZM1234.66,521.41c-.33-1.34.48-2.7,1.82-3.04h0c1.34-.33,2.7.48,3.03,1.82h0c.34,1.34-.47,2.7-1.81,3.03h0c-.21.06-.41.08-.61.08h0c-1.12,0-2.14-.76-2.43-1.89ZM1131.68,519.51c-1.31-.43-2.03-1.85-1.6-3.16h0c.43-1.31,1.84-2.03,3.15-1.6h0c1.32.43,2.03,1.85,1.6,3.16h0c-.34,1.05-1.32,1.72-2.37,1.72h0c-.26,0-.52-.04-.78-.12ZM1247.46,517.9c-.43-1.31.28-2.73,1.59-3.16h0c1.32-.43,2.73.29,3.16,1.6h0c.43,1.31-.29,2.72-1.6,3.16h0c-.26.08-.52.12-.78.12h0c-1.05,0-2.03-.67-2.37-1.72ZM1119.07,514.87h0c-1.28-.52-1.89-1.98-1.37-3.26h0c.52-1.28,1.98-1.89,3.26-1.37h0c1.27.52,1.89,1.98,1.37,3.26h0c-.4.97-1.33,1.56-2.32,1.56h0c-.31,0-.63-.06-.94-.19ZM1259.96,513.49c-.52-1.28.09-2.74,1.37-3.26h0c1.27-.52,2.74.09,3.26,1.37h0c.52,1.28-.09,2.74-1.37,3.26h0c-.31.13-.63.19-.95.19h0c-.98,0-1.92-.59-2.31-1.56ZM1106.82,509.36c-1.24-.61-1.75-2.11-1.14-3.35h0c.61-1.24,2.11-1.75,3.35-1.14h0c1.24.61,1.75,2.11,1.14,3.35h0c-.44.88-1.33,1.4-2.25,1.4h0c-.37,0-.75-.09-1.1-.26ZM1272.12,508.22c-.61-1.24-.1-2.74,1.13-3.35h0c1.24-.61,2.74-.1,3.35,1.14h0c.61,1.24.1,2.73-1.14,3.34h0c-.36.18-.74.26-1.11.26h0c-.92,0-1.81-.51-2.24-1.39ZM1094.98,503c-1.19-.69-1.59-2.23-.9-3.42h0c.7-1.19,2.23-1.59,3.42-.9h0c1.19.7,1.6,2.23.9,3.42h0c-.47.8-1.3,1.24-2.16,1.24h0c-.43,0-.86-.11-1.26-.34ZM1283.87,502.09c-.7-1.19-.29-2.72.9-3.42h0c1.19-.69,2.72-.29,3.42.9h0c.69,1.19.29,2.72-.9,3.42h0c-.39.23-.83.34-1.26.34h0c-.86,0-1.69-.44-2.16-1.24ZM1083.63,495.82c-1.14-.78-1.44-2.34-.66-3.48h0c.78-1.14,2.34-1.43,3.48-.65h0c1.14.77,1.43,2.33.65,3.47h0c-.48.71-1.27,1.09-2.06,1.09h0c-.49,0-.98-.14-1.41-.43ZM1072.81,487.87c-1.08-.86-1.27-2.44-.41-3.52h0c.86-1.08,2.43-1.27,3.51-.41h0c1.08.86,1.27,2.43.41,3.51h0c-.49.63-1.22.95-1.96.95h0c-.54,0-1.09-.17-1.55-.53ZM1062.57,479.16c-1.02-.93-1.1-2.51-.17-3.53h0c.93-1.02,2.52-1.09,3.54-.16h0c1.02.93,1.09,2.51.16,3.53h0c-.49.54-1.17.81-1.85.81h0c-.6,0-1.2-.21-1.68-.65ZM1052.97,469.78h0c-.95-1-.92-2.59.08-3.54h0c1-.95,2.58-.91,3.54.09h0c.95.99.91,2.58-.09,3.53h0c-.48.46-1.1.69-1.72.69h0c-.66,0-1.32-.26-1.81-.77ZM1044.04,459.73c-.88-1.06-.73-2.64.33-3.52h0c1.06-.88,2.64-.73,3.52.33h0c.88,1.07.73,2.64-.33,3.52h0c-.47.39-1.03.58-1.59.58h0c-.72,0-1.44-.31-1.93-.91ZM1035.84,449.1c-.8-1.12-.54-2.69.58-3.49h0c1.12-.81,2.69-.55,3.49.58h0c.8,1.12.54,2.68-.58,3.49h0c-.44.31-.95.46-1.45.46h0c-.78,0-1.55-.36-2.04-1.04ZM1028.41,437.91c-.73-1.17-.36-2.71.82-3.43h0c1.17-.73,2.71-.36,3.44.82h0c.72,1.17.35,2.71-.83,3.43h0c-.4.26-.86.38-1.3.38h0c-.84,0-1.66-.43-2.13-1.2Z"/>
      <path class="cls-1" d="M1023.97,427.52c-.16,0-.33-.02-.49-.05-.16-.04-.31-.08-.46-.15-.15-.06-.3-.14-.44-.23-.13-.09-.26-.19-.37-.31-.12-.11-.23-.24-.32-.38-.09-.13-.16-.28-.23-.43-.06-.15-.11-.31-.14-.47-.03-.16-.05-.32-.05-.48,0-.66.27-1.31.73-1.77.58-.58,1.45-.85,2.26-.69.16.04.32.08.47.15.15.06.29.14.43.23.14.09.26.19.38.31.11.11.22.24.31.38.09.13.17.28.23.43.06.15.11.31.14.47.04.16.05.32.05.49,0,.16-.01.32-.05.48-.03.16-.08.32-.14.47s-.14.3-.23.43c-.09.14-.2.27-.31.38-.47.47-1.11.74-1.77.74Z"/>
    </g>
  </g>
  <g>
    <path class="cls-3" d="M795.92,316.84c0,4.18-.81,8-2.43,11.45-1.62,3.45-3.83,6.39-6.62,8.82-2.8,2.43-6.06,4.33-9.79,5.69-3.73,1.36-7.7,2.04-11.92,2.04h-72.12v-19.25h72.12c7.26,0,10.89-2.92,10.89-8.75v-5.69c0-6.32-3.63-9.48-10.89-9.48h-78.3v85.76h-19.87v-104.42h98.17c4.22,0,8.19.68,11.92,2.04,3.73,1.36,6.99,3.28,9.79,5.76,2.8,2.48,5,5.45,6.62,8.9,1.62,3.45,2.43,7.27,2.43,11.45v5.69Z"/>
    <path class="cls-3" d="M941.93,387.43h-19.87v-33.98c0-2.72-1.1-4.84-3.31-6.34-2.21-1.51-4.74-2.26-7.58-2.26h-72.12v-19.25h72.12c7.26,0,10.89-2.92,10.89-8.75v-5.69c0-6.32-3.63-9.48-10.89-9.48h-78.3v85.76h-19.87v-104.42h98.17c4.22,0,8.19.68,11.92,2.04,3.73,1.36,6.99,3.28,9.79,5.76,2.8,2.48,5,5.45,6.62,8.9,1.62,3.45,2.43,7.27,2.43,11.45v5.69c0,6.71-2.6,12.79-7.8,18.23,5.2,5.74,7.8,11.86,7.8,18.38v33.98Z"/>
    <path class="cls-2" d="M1058.35,344.11h-15.75v43.32h-19.87v-43.32h-28.11c-4.32,0-8.34-.68-12.07-2.04-3.73-1.36-6.99-3.28-9.79-5.76-2.8-2.48-5-5.44-6.62-8.9-1.62-3.45-2.43-7.31-2.43-11.59v-32.96h19.87v32.96c0,6.42,3.64,9.63,10.93,9.63h28.22v-42.59h19.87v42.59h15.75v18.67Z"/>
    <path class="cls-2" d="M1176.1,359.13c0,3.99-.86,7.71-2.58,11.16-1.72,3.45-4.02,6.44-6.92,8.97-2.9,2.53-6.21,4.52-9.94,5.98-3.73,1.46-7.56,2.19-11.48,2.19h-67.41v-18.67h67.41c1.27,0,2.58-.24,3.9-.73,1.33-.49,2.53-1.17,3.61-2.04,1.08-.87,1.94-1.9,2.58-3.06.64-1.17.96-2.43.96-3.79v-5.4c0-6.22-3.68-9.33-11.04-9.33l-36.21-.15c-4.32,0-8.34-.66-12.07-1.97-3.73-1.31-6.99-3.18-9.79-5.62-2.8-2.43-5-5.37-6.62-8.82-1.62-3.45-2.43-7.32-2.43-11.59v-5.25c0-3.89.88-7.53,2.63-10.94,1.75-3.4,4.07-6.39,6.94-8.97,2.87-2.57,6.14-4.59,9.81-6.05s7.46-2.19,11.39-2.19h62.11v18.67h-62.11c-1.38,0-2.7.24-3.97.73-1.28.49-2.43,1.17-3.46,2.04-1.03.88-1.87,1.9-2.5,3.06-.64,1.17-.96,2.38-.96,3.65v5.25c0,6.22,3.64,9.33,10.91,9.33l36.28.15c4.42,0,8.53.73,12.31,2.19,3.79,1.46,7.05,3.45,9.81,5.98,2.75,2.53,4.92,5.49,6.49,8.9,1.57,3.4,2.36,7.05,2.36,10.94v5.4Z"/>
  </g>
</svg>